<?xml version="1.0" encoding="UTF-8"?>
<svg xmlns="http://www.w3.org/2000/svg" xmlns:xlink="http://www.w3.org/1999/xlink" width="32px" height="12px" viewBox="0 0 31 12" version="1.1">
<g id="surface1">
<path style=" stroke:none;fill-rule:nonzero;fill:rgb(90.196079%,0%,1.568628%);fill-opacity:1;" d="M 10.5625 1.550781 C 10.554688 1.222656 10.476562 0.9375 10.300781 0.761719 C 10.101562 0.582031 9.855469 0.460938 9.589844 0.410156 C 8.175781 0.132812 6.738281 0 5.296875 0.0078125 C 3.855469 -0.00390625 2.417969 0.132812 1.003906 0.410156 L 1 0.410156 C 0.734375 0.460938 0.488281 0.582031 0.285156 0.765625 C 0.113281 0.941406 0.0351562 1.226562 0.0273438 1.554688 C 0 2.796875 0.078125 4.039062 0.25 5.269531 C 0.390625 6.25 0.589844 7.222656 0.855469 8.175781 C 1.003906 8.664062 1.285156 8.996094 1.785156 9.074219 C 2.941406 9.257812 4.113281 9.351562 5.289062 9.347656 C 6.460938 9.351562 7.632812 9.257812 8.789062 9.074219 C 9.289062 8.996094 9.570312 8.664062 9.71875 8.175781 C 9.984375 7.222656 10.191406 6.253906 10.332031 5.273438 C 10.507812 4.039062 10.585938 2.796875 10.5625 1.550781 Z M 10.5625 1.550781 "/>
<path style=" stroke:none;fill-rule:nonzero;fill:rgb(100%,100%,100%);fill-opacity:1;" d="M 5.292969 9.105469 C 4.132812 9.105469 2.972656 9.015625 1.824219 8.832031 C 1.457031 8.777344 1.222656 8.542969 1.089844 8.097656 C 0.828125 7.15625 0.628906 6.199219 0.496094 5.230469 C 0.320312 4.011719 0.246094 2.78125 0.269531 1.550781 C 0.277344 1.261719 0.34375 1.042969 0.460938 0.921875 C 0.628906 0.777344 0.835938 0.675781 1.054688 0.636719 L 1.070312 0.636719 C 2.449219 0.367188 3.847656 0.238281 5.25 0.242188 L 5.332031 0.242188 C 6.738281 0.234375 8.144531 0.367188 9.523438 0.636719 L 9.53125 0.636719 C 9.753906 0.679688 9.960938 0.777344 10.128906 0.925781 C 10.242188 1.046875 10.316406 1.265625 10.324219 1.558594 C 10.347656 2.785156 10.273438 4.015625 10.097656 5.234375 C 9.960938 6.203125 9.761719 7.164062 9.5 8.105469 C 9.367188 8.542969 9.132812 8.773438 8.765625 8.832031 C 7.617188 9.011719 6.460938 9.105469 5.296875 9.105469 Z M 5.292969 9.105469 "/>
<path style=" stroke:none;fill-rule:nonzero;fill:rgb(100%,100%,100%);fill-opacity:1;" d="M 6.636719 3.53125 L 5.613281 3.53125 C 5.578125 3.535156 5.550781 3.5625 5.550781 3.597656 L 5.421875 5.785156 C 5.417969 5.800781 5.425781 5.816406 5.433594 5.828125 C 5.445312 5.839844 5.460938 5.847656 5.476562 5.851562 L 5.71875 5.851562 C 5.75 5.847656 5.777344 5.820312 5.777344 5.785156 L 5.824219 5.007812 L 6.550781 5.007812 C 6.664062 5.015625 6.757812 4.929688 6.765625 4.820312 L 6.824219 3.734375 C 6.828125 3.683594 6.8125 3.628906 6.777344 3.59375 C 6.742188 3.554688 6.691406 3.53125 6.636719 3.53125 Z M 6.636719 3.53125 "/>
<path style=" stroke:none;fill-rule:nonzero;fill:rgb(90.196079%,0%,5.098039%);fill-opacity:1;" d="M 6.34375 3.929688 L 5.917969 3.929688 L 5.847656 4.59375 L 6.304688 4.625 C 6.328125 4.625 6.351562 4.617188 6.371094 4.597656 C 6.390625 4.582031 6.402344 4.558594 6.402344 4.535156 L 6.433594 4.019531 C 6.433594 3.996094 6.421875 3.972656 6.40625 3.953125 C 6.390625 3.9375 6.367188 3.925781 6.34375 3.925781 "/>
<path style=" stroke:none;fill-rule:nonzero;fill:rgb(100%,100%,100%);fill-opacity:1;" d="M 5.136719 3.53125 L 3.855469 3.53125 C 3.820312 3.53125 3.792969 3.558594 3.789062 3.59375 L 3.773438 3.863281 C 3.773438 3.878906 3.777344 3.894531 3.789062 3.90625 C 3.800781 3.917969 3.816406 3.925781 3.832031 3.925781 L 4.222656 3.925781 C 4.273438 3.929688 4.296875 3.957031 4.289062 4.007812 L 4.1875 5.785156 C 4.183594 5.800781 4.1875 5.816406 4.199219 5.828125 C 4.207031 5.84375 4.222656 5.847656 4.238281 5.851562 L 4.480469 5.851562 C 4.515625 5.847656 4.542969 5.820312 4.542969 5.785156 L 4.648438 4.003906 C 4.648438 3.949219 4.679688 3.925781 4.742188 3.925781 L 5.113281 3.925781 C 5.148438 3.921875 5.179688 3.898438 5.183594 3.863281 L 5.199219 3.59375 C 5.199219 3.578125 5.191406 3.5625 5.179688 3.550781 C 5.167969 3.539062 5.152344 3.53125 5.136719 3.53125 Z M 5.136719 3.53125 "/>
<path style=" stroke:none;fill-rule:nonzero;fill:rgb(90.196079%,0%,1.568628%);fill-opacity:1;" d="M 7.722656 3.980469 L 7.761719 3.964844 C 7.929688 3.898438 8.03125 3.878906 8.140625 3.925781 C 8.199219 3.949219 8.234375 3.894531 8.179688 3.851562 C 8.042969 3.710938 7.855469 3.636719 7.660156 3.640625 C 7.824219 3.609375 7.871094 3.558594 8.027344 3.515625 C 8.207031 3.472656 8.398438 3.507812 8.546875 3.617188 C 8.601562 3.652344 8.648438 3.597656 8.609375 3.550781 C 8.296875 3.164062 7.78125 3.066406 7.335938 3.183594 L 7.367188 3.160156 C 7.503906 3.035156 7.59375 2.984375 7.703125 2.988281 C 7.773438 2.988281 7.785156 2.925781 7.71875 2.90625 C 7.542969 2.824219 7.34375 2.816406 7.160156 2.886719 C 7.304688 2.800781 7.328125 2.738281 7.464844 2.644531 C 7.617188 2.539062 7.808594 2.507812 7.988281 2.558594 C 8.054688 2.570312 8.078125 2.503906 8.023438 2.472656 C 7.601562 2.21875 7.082031 2.304688 6.703125 2.570312 C 6.710938 2.558594 6.714844 2.546875 6.722656 2.535156 C 6.808594 2.375 6.875 2.292969 6.988281 2.257812 C 7.050781 2.238281 7.039062 2.171875 6.972656 2.175781 C 6.777344 2.15625 6.585938 2.222656 6.441406 2.351562 C 6.546875 2.222656 6.550781 2.152344 6.644531 2.011719 C 6.75 1.863281 6.921875 1.765625 7.105469 1.753906 C 7.167969 1.742188 7.171875 1.671875 7.105469 1.660156 C 6.621094 1.566406 6.160156 1.828125 5.898438 2.207031 C 5.898438 2.195312 5.898438 2.183594 5.898438 2.167969 C 5.921875 1.984375 5.960938 1.886719 6.050781 1.816406 C 6.105469 1.777344 6.074219 1.71875 6.011719 1.746094 C 5.820312 1.792969 5.664062 1.921875 5.570312 2.09375 C 5.625 1.933594 5.605469 1.867188 5.648438 1.710938 C 5.703125 1.53125 5.832031 1.386719 6.003906 1.316406 C 6.058594 1.28125 6.039062 1.214844 5.976562 1.226562 C 5.492188 1.304688 5.144531 1.710938 5.027344 2.15625 C 5.027344 2.144531 5.027344 2.132812 5.019531 2.121094 C 4.980469 1.9375 4.980469 1.832031 5.046875 1.734375 C 5.082031 1.675781 5.03125 1.632812 4.980469 1.679688 C 4.820312 1.792969 4.714844 1.96875 4.6875 2.160156 C 4.6875 1.996094 4.640625 1.933594 4.628906 1.773438 C 4.613281 1.585938 4.683594 1.402344 4.816406 1.269531 C 4.859375 1.222656 4.816406 1.164062 4.761719 1.195312 C 4.332031 1.441406 4.144531 1.9375 4.183594 2.398438 L 4.164062 2.367188 C 4.066406 2.210938 4.035156 2.109375 4.058594 1.996094 C 4.074219 1.929688 4.011719 1.90625 3.980469 1.96875 C 3.867188 2.128906 3.828125 2.328125 3.867188 2.519531 C 3.808594 2.363281 3.75 2.328125 3.679688 2.179688 C 3.605469 2.007812 3.609375 1.8125 3.691406 1.644531 C 3.710938 1.582031 3.652344 1.546875 3.613281 1.59375 C 3.289062 1.972656 3.28125 2.503906 3.476562 2.925781 L 3.445312 2.902344 C 3.304688 2.789062 3.238281 2.707031 3.222656 2.589844 C 3.214844 2.523438 3.144531 2.519531 3.136719 2.589844 C 3.085938 2.777344 3.113281 2.980469 3.21875 3.148438 C 3.105469 3.023438 3.042969 3.007812 2.925781 2.890625 C 2.796875 2.753906 2.734375 2.570312 2.753906 2.386719 C 2.753906 2.320312 2.683594 2.304688 2.664062 2.363281 C 2.488281 2.832031 2.664062 3.332031 2.988281 3.660156 L 2.949219 3.648438 C 2.777344 3.589844 2.6875 3.539062 2.632812 3.433594 C 2.605469 3.375 2.542969 3.394531 2.554688 3.464844 C 2.574219 3.660156 2.667969 3.835938 2.820312 3.960938 C 2.675781 3.878906 2.609375 3.890625 2.460938 3.820312 C 2.292969 3.734375 2.171875 3.585938 2.128906 3.40625 C 2.105469 3.339844 2.035156 3.351562 2.035156 3.414062 C 2.046875 3.898438 2.335938 4.328125 2.777344 4.523438 L 2.738281 4.523438 C 2.558594 4.527344 2.453125 4.507812 2.371094 4.429688 C 2.320312 4.382812 2.269531 4.429688 2.304688 4.484375 C 2.386719 4.664062 2.539062 4.800781 2.726562 4.859375 C 2.566406 4.835938 2.5 4.867188 2.339844 4.851562 C 2.15625 4.832031 1.992188 4.730469 1.890625 4.578125 C 1.847656 4.527344 1.785156 4.558594 1.804688 4.617188 C 1.96875 5.089844 2.421875 5.363281 2.878906 5.402344 L 2.84375 5.417969 C 2.675781 5.484375 2.570312 5.503906 2.464844 5.457031 C 2.402344 5.433594 2.367188 5.488281 2.421875 5.53125 C 2.558594 5.671875 2.746094 5.746094 2.941406 5.742188 C 2.78125 5.773438 2.734375 5.824219 2.574219 5.867188 C 2.394531 5.914062 2.199219 5.875 2.050781 5.765625 C 1.992188 5.730469 1.945312 5.785156 1.984375 5.832031 C 2.300781 6.195312 2.800781 6.339844 3.257812 6.199219 C 3.25 6.207031 3.238281 6.214844 3.230469 6.222656 C 3.09375 6.347656 3.003906 6.398438 2.890625 6.394531 C 2.824219 6.394531 2.8125 6.457031 2.875 6.476562 C 3.050781 6.5625 3.253906 6.566406 3.433594 6.496094 C 3.292969 6.582031 3.265625 6.644531 3.132812 6.738281 C 2.980469 6.84375 2.789062 6.875 2.609375 6.824219 C 2.546875 6.8125 2.523438 6.878906 2.574219 6.910156 C 2.996094 7.164062 3.519531 7.082031 3.894531 6.8125 L 3.875 6.847656 C 3.789062 7.011719 3.722656 7.089844 3.609375 7.125 C 3.546875 7.144531 3.554688 7.210938 3.625 7.207031 C 3.820312 7.226562 4.011719 7.160156 4.15625 7.03125 C 4.050781 7.160156 4.050781 7.230469 3.957031 7.371094 C 3.847656 7.519531 3.679688 7.613281 3.492188 7.628906 C 3.429688 7.640625 3.425781 7.710938 3.492188 7.722656 C 3.976562 7.816406 4.4375 7.554688 4.699219 7.175781 C 4.699219 7.1875 4.699219 7.199219 4.699219 7.214844 C 4.675781 7.398438 4.636719 7.496094 4.546875 7.566406 C 4.492188 7.605469 4.523438 7.664062 4.589844 7.636719 C 4.777344 7.589844 4.933594 7.460938 5.023438 7.289062 C 4.972656 7.449219 4.992188 7.515625 4.949219 7.671875 C 4.898438 7.851562 4.773438 8 4.605469 8.074219 C 4.546875 8.109375 4.570312 8.175781 4.632812 8.167969 C 5.117188 8.085938 5.460938 7.679688 5.582031 7.234375 C 5.582031 7.246094 5.582031 7.261719 5.589844 7.269531 C 5.625 7.453125 5.625 7.558594 5.5625 7.65625 C 5.527344 7.714844 5.574219 7.757812 5.628906 7.710938 C 5.785156 7.597656 5.894531 7.425781 5.921875 7.230469 C 5.921875 7.398438 5.964844 7.457031 5.980469 7.617188 C 5.988281 7.804688 5.914062 7.984375 5.777344 8.109375 C 5.734375 8.160156 5.777344 8.21875 5.832031 8.1875 C 6.261719 7.941406 6.449219 7.445312 6.410156 6.984375 L 6.429688 7.015625 C 6.527344 7.171875 6.5625 7.273438 6.535156 7.386719 C 6.519531 7.453125 6.582031 7.476562 6.613281 7.414062 C 6.726562 7.253906 6.765625 7.054688 6.726562 6.863281 C 6.789062 7.019531 6.839844 7.054688 6.914062 7.203125 C 6.988281 7.375 6.988281 7.570312 6.90625 7.738281 C 6.882812 7.800781 6.945312 7.835938 6.984375 7.789062 C 7.304688 7.414062 7.3125 6.878906 7.117188 6.460938 C 7.128906 6.464844 7.140625 6.476562 7.148438 6.484375 C 7.292969 6.597656 7.359375 6.679688 7.375 6.792969 C 7.382812 6.863281 7.449219 6.863281 7.457031 6.792969 C 7.511719 6.605469 7.480469 6.402344 7.378906 6.238281 C 7.492188 6.359375 7.554688 6.378906 7.667969 6.492188 C 7.796875 6.628906 7.859375 6.8125 7.839844 7 C 7.839844 7.0625 7.910156 7.078125 7.929688 7.019531 C 8.105469 6.554688 7.929688 6.050781 7.609375 5.722656 L 7.644531 5.734375 C 7.816406 5.792969 7.910156 5.847656 7.960938 5.949219 C 7.992188 6.007812 8.054688 5.988281 8.039062 5.921875 C 8.023438 5.726562 7.925781 5.546875 7.773438 5.425781 C 7.917969 5.503906 7.988281 5.496094 8.136719 5.566406 C 8.300781 5.648438 8.425781 5.800781 8.46875 5.980469 C 8.492188 6.042969 8.558594 6.03125 8.5625 5.96875 C 8.550781 5.488281 8.257812 5.054688 7.816406 4.859375 L 7.855469 4.859375 C 8.039062 4.855469 8.140625 4.875 8.226562 4.953125 C 8.277344 5 8.328125 4.953125 8.289062 4.898438 C 8.210938 4.722656 8.058594 4.585938 7.875 4.523438 C 8.039062 4.550781 8.097656 4.515625 8.257812 4.535156 C 8.441406 4.554688 8.609375 4.652344 8.710938 4.808594 C 8.753906 4.859375 8.816406 4.824219 8.792969 4.765625 C 8.636719 4.292969 8.179688 4.019531 7.722656 3.980469 Z M 5.179688 3.867188 C 5.175781 3.902344 5.148438 3.929688 5.113281 3.929688 L 4.742188 3.929688 C 4.679688 3.929688 4.648438 3.957031 4.648438 4.007812 L 4.542969 5.792969 C 4.542969 5.824219 4.515625 5.851562 4.480469 5.855469 L 4.238281 5.855469 C 4.222656 5.855469 4.207031 5.847656 4.199219 5.835938 C 4.1875 5.824219 4.183594 5.808594 4.1875 5.792969 L 4.289062 4.015625 C 4.296875 3.964844 4.273438 3.9375 4.222656 3.929688 L 3.832031 3.929688 C 3.816406 3.929688 3.800781 3.921875 3.789062 3.910156 C 3.777344 3.898438 3.773438 3.882812 3.773438 3.867188 L 3.789062 3.601562 C 3.789062 3.5625 3.820312 3.53125 3.855469 3.53125 L 5.136719 3.53125 C 5.152344 3.53125 5.167969 3.539062 5.179688 3.550781 C 5.191406 3.5625 5.199219 3.578125 5.195312 3.59375 Z M 6.761719 4.820312 C 6.761719 4.875 6.738281 4.925781 6.695312 4.960938 C 6.65625 5 6.605469 5.019531 6.550781 5.015625 L 5.824219 5.015625 L 5.777344 5.785156 C 5.777344 5.820312 5.75 5.847656 5.71875 5.851562 L 5.476562 5.851562 C 5.460938 5.847656 5.445312 5.839844 5.433594 5.828125 C 5.425781 5.816406 5.417969 5.800781 5.421875 5.785156 L 5.550781 3.597656 C 5.550781 3.5625 5.578125 3.535156 5.613281 3.53125 L 6.640625 3.53125 C 6.691406 3.53125 6.738281 3.554688 6.777344 3.589844 C 6.8125 3.628906 6.828125 3.679688 6.828125 3.730469 Z M 6.761719 4.820312 "/>
<path style=" stroke:none;fill-rule:nonzero;fill:rgb(10.588235%,10.980392%,12.54902%);fill-opacity:1;" d="M 13.703125 4.824219 L 13.703125 2.292969 L 14.621094 2.292969 L 14.621094 1.78125 L 12.160156 1.78125 L 12.160156 2.292969 L 13.078125 2.292969 L 13.078125 4.824219 Z M 15.019531 3.402344 C 15.011719 3.664062 15.03125 3.921875 15.078125 4.175781 C 15.109375 4.300781 15.171875 4.417969 15.253906 4.515625 C 15.351562 4.632812 15.476562 4.722656 15.617188 4.777344 C 15.832031 4.855469 16.058594 4.890625 16.289062 4.878906 C 16.488281 4.886719 16.691406 4.855469 16.882812 4.789062 C 17.023438 4.734375 17.144531 4.648438 17.246094 4.539062 C 17.339844 4.429688 17.40625 4.296875 17.433594 4.15625 C 17.476562 3.902344 17.492188 3.640625 17.484375 3.382812 L 17.484375 1.78125 L 16.859375 1.78125 L 16.859375 3.464844 C 16.863281 3.636719 16.855469 3.808594 16.832031 3.980469 C 16.8125 4.085938 16.753906 4.179688 16.667969 4.242188 C 16.554688 4.324219 16.410156 4.367188 16.269531 4.355469 C 16.121094 4.363281 15.976562 4.324219 15.855469 4.242188 C 15.757812 4.171875 15.691406 4.066406 15.667969 3.945312 C 15.644531 3.773438 15.636719 3.605469 15.640625 3.433594 L 15.640625 1.78125 L 15.019531 1.78125 Z M 16.058594 1.105469 L 15.550781 1.105469 L 15.550781 1.605469 L 16.058594 1.605469 Z M 16.960938 1.105469 L 16.453125 1.105469 L 16.453125 1.605469 L 16.960938 1.605469 Z M 18.769531 4.824219 L 18.769531 3.554688 L 18.898438 3.554688 C 19.003906 3.550781 19.109375 3.5625 19.210938 3.589844 C 19.28125 3.613281 19.347656 3.660156 19.398438 3.714844 C 19.515625 3.859375 19.625 4.011719 19.726562 4.167969 L 20.179688 4.832031 L 20.925781 4.832031 L 20.546875 4.234375 C 20.445312 4.0625 20.324219 3.894531 20.191406 3.742188 C 20.09375 3.640625 19.980469 3.554688 19.855469 3.488281 C 20.085938 3.464844 20.300781 3.363281 20.464844 3.199219 C 20.601562 3.046875 20.675781 2.84375 20.667969 2.636719 C 20.671875 2.464844 20.625 2.296875 20.535156 2.15625 C 20.449219 2.019531 20.324219 1.917969 20.175781 1.863281 C 19.941406 1.796875 19.695312 1.769531 19.453125 1.78125 L 18.144531 1.78125 L 18.144531 4.824219 Z M 18.769531 2.292969 L 19.257812 2.292969 C 19.511719 2.292969 19.664062 2.292969 19.710938 2.304688 C 19.800781 2.316406 19.882812 2.359375 19.945312 2.425781 C 20.003906 2.496094 20.03125 2.582031 20.027344 2.671875 C 20.03125 2.753906 20.007812 2.832031 19.964844 2.898438 C 19.921875 2.960938 19.863281 3.007812 19.789062 3.03125 C 19.605469 3.0625 19.414062 3.078125 19.226562 3.066406 L 18.769531 3.066406 Z M 21.894531 4.824219 L 21.894531 3.90625 L 22.402344 3.394531 L 23.253906 4.824219 L 24.0625 4.824219 L 22.835938 2.964844 L 24.003906 1.78125 L 23.164062 1.78125 L 21.902344 3.136719 L 21.902344 1.78125 L 21.277344 1.78125 L 21.277344 4.824219 Z M 24.984375 1.78125 L 24.359375 1.78125 L 24.359375 4.824219 L 24.984375 4.824219 Z M 24.96875 1.050781 L 24.386719 1.050781 L 24.386719 1.605469 L 24.96875 1.605469 Z M 27.019531 4.824219 L 27.019531 3.546875 L 28.152344 1.78125 L 27.4375 1.78125 L 26.722656 2.984375 L 25.992188 1.78125 L 25.261719 1.78125 L 26.390625 3.542969 L 26.390625 4.824219 Z M 30.816406 4.824219 L 30.816406 4.3125 L 29.089844 4.3125 L 29.089844 3.484375 L 30.640625 3.484375 L 30.640625 2.96875 L 29.089844 2.96875 L 29.089844 2.292969 L 30.757812 2.292969 L 30.757812 1.78125 L 28.464844 1.78125 L 28.464844 4.824219 Z M 30.816406 4.824219 "/>
<path style=" stroke:none;fill-rule:nonzero;fill:rgb(10.588235%,10.980392%,12.54902%);fill-opacity:1;" d="M 12.621094 8.164062 L 12.621094 7.351562 L 12.90625 7.351562 C 13.054688 7.355469 13.207031 7.34375 13.355469 7.320312 C 13.4375 7.300781 13.515625 7.265625 13.582031 7.21875 C 13.660156 7.164062 13.722656 7.089844 13.765625 7.003906 C 13.816406 6.902344 13.84375 6.785156 13.839844 6.671875 C 13.84375 6.519531 13.800781 6.371094 13.714844 6.25 C 13.636719 6.148438 13.527344 6.074219 13.402344 6.039062 C 13.230469 6.011719 13.058594 6 12.886719 6.007812 L 12.1875 6.007812 L 12.1875 8.164062 Z M 12.832031 6.371094 C 12.933594 6.367188 13.039062 6.375 13.144531 6.386719 C 13.210938 6.398438 13.273438 6.429688 13.320312 6.480469 C 13.367188 6.535156 13.390625 6.605469 13.390625 6.675781 C 13.390625 6.734375 13.371094 6.792969 13.339844 6.84375 C 13.304688 6.890625 13.257812 6.929688 13.203125 6.949219 C 13.089844 6.980469 12.972656 6.992188 12.859375 6.984375 L 12.621094 6.984375 L 12.621094 6.371094 Z M 15.832031 8.164062 L 15.832031 7.800781 L 14.628906 7.800781 L 14.628906 7.214844 L 15.710938 7.214844 L 15.710938 6.855469 L 14.628906 6.855469 L 14.628906 6.371094 L 15.792969 6.371094 L 15.792969 6.007812 L 14.195312 6.007812 L 14.195312 8.164062 Z M 17.121094 8.164062 L 17.121094 6.371094 L 17.761719 6.371094 L 17.761719 6.007812 L 16.046875 6.007812 L 16.046875 6.371094 L 16.6875 6.371094 L 16.6875 8.164062 Z M 18.476562 8.164062 L 18.476562 7.257812 L 18.566406 7.257812 C 18.636719 7.257812 18.710938 7.265625 18.785156 7.28125 C 18.832031 7.300781 18.878906 7.332031 18.914062 7.371094 C 18.996094 7.472656 19.070312 7.578125 19.140625 7.691406 L 19.453125 8.160156 L 19.976562 8.160156 L 19.710938 7.738281 C 19.640625 7.613281 19.558594 7.496094 19.464844 7.390625 C 19.398438 7.316406 19.320312 7.253906 19.230469 7.207031 C 19.394531 7.195312 19.542969 7.121094 19.65625 7.007812 C 19.753906 6.898438 19.804688 6.753906 19.800781 6.609375 C 19.804688 6.488281 19.769531 6.371094 19.707031 6.269531 C 19.648438 6.175781 19.5625 6.101562 19.460938 6.0625 C 19.296875 6.015625 19.128906 5.996094 18.957031 6.003906 L 18.042969 6.003906 L 18.042969 8.164062 Z M 18.476562 6.371094 L 18.816406 6.371094 C 18.992188 6.371094 19.097656 6.371094 19.132812 6.378906 C 19.195312 6.386719 19.253906 6.417969 19.296875 6.464844 C 19.339844 6.511719 19.359375 6.574219 19.355469 6.640625 C 19.359375 6.695312 19.34375 6.753906 19.3125 6.800781 C 19.28125 6.84375 19.238281 6.878906 19.1875 6.890625 C 19.0625 6.917969 18.929688 6.925781 18.796875 6.917969 L 18.476562 6.917969 Z M 20.410156 7.90625 C 20.839844 8.300781 21.503906 8.300781 21.933594 7.90625 C 22.132812 7.683594 22.234375 7.386719 22.214844 7.089844 C 22.234375 6.789062 22.132812 6.492188 21.933594 6.265625 C 21.734375 6.066406 21.457031 5.957031 21.171875 5.972656 C 21.011719 5.96875 20.855469 5.996094 20.707031 6.054688 C 20.601562 6.101562 20.507812 6.167969 20.429688 6.25 C 20.34375 6.335938 20.277344 6.4375 20.230469 6.546875 C 20.15625 6.722656 20.125 6.910156 20.128906 7.097656 C 20.113281 7.394531 20.214844 7.6875 20.414062 7.90625 M 20.742188 6.527344 C 20.855469 6.410156 21.011719 6.34375 21.175781 6.34375 C 21.335938 6.34375 21.492188 6.410156 21.605469 6.527344 C 21.726562 6.6875 21.785156 6.882812 21.765625 7.082031 C 21.785156 7.285156 21.722656 7.484375 21.601562 7.648438 C 21.492188 7.765625 21.335938 7.835938 21.171875 7.835938 C 21.011719 7.835938 20.855469 7.765625 20.746094 7.648438 C 20.621094 7.484375 20.558594 7.285156 20.578125 7.082031 C 20.5625 6.882812 20.621094 6.683594 20.742188 6.523438 M 24.089844 8.160156 L 24.089844 7.800781 L 23.007812 7.800781 L 23.007812 6.023438 L 22.570312 6.023438 L 22.570312 8.164062 Z M 25.925781 8.160156 L 25.925781 7.800781 L 24.84375 7.800781 L 24.84375 6.023438 L 24.40625 6.023438 L 24.40625 8.164062 Z M 27.875 8.160156 L 27.875 7.800781 L 26.671875 7.800781 L 26.671875 7.214844 L 27.753906 7.214844 L 27.753906 6.855469 L 26.671875 6.855469 L 26.671875 6.371094 L 27.835938 6.371094 L 27.835938 6.007812 L 26.234375 6.007812 L 26.234375 8.164062 Z M 28.683594 8.160156 L 28.683594 7.253906 L 28.769531 7.253906 C 28.84375 7.253906 28.917969 7.261719 28.988281 7.277344 C 29.039062 7.296875 29.085938 7.328125 29.121094 7.371094 C 29.203125 7.46875 29.277344 7.574219 29.347656 7.6875 L 29.664062 8.15625 L 30.179688 8.15625 L 29.917969 7.734375 C 29.84375 7.609375 29.761719 7.492188 29.667969 7.386719 C 29.601562 7.3125 29.523438 7.25 29.4375 7.203125 C 29.597656 7.191406 29.75 7.121094 29.863281 7.003906 C 29.960938 6.894531 30.011719 6.75 30.007812 6.605469 C 30.007812 6.484375 29.976562 6.367188 29.910156 6.265625 C 29.851562 6.171875 29.765625 6.101562 29.664062 6.0625 C 29.5 6.019531 29.332031 6 29.164062 6.007812 L 28.25 6.007812 L 28.25 8.164062 Z M 28.683594 6.367188 L 29.023438 6.367188 C 29.199219 6.367188 29.304688 6.367188 29.339844 6.375 C 29.402344 6.382812 29.460938 6.414062 29.503906 6.460938 C 29.542969 6.511719 29.566406 6.574219 29.5625 6.636719 C 29.5625 6.695312 29.546875 6.75 29.519531 6.796875 C 29.488281 6.84375 29.445312 6.875 29.394531 6.890625 C 29.265625 6.914062 29.136719 6.921875 29.003906 6.917969 L 28.683594 6.917969 Z M 30.84375 6.003906 L 30.40625 6.003906 L 30.40625 8.164062 L 30.84375 8.164062 Z M 30.828125 5.5 L 30.425781 5.5 L 30.425781 5.882812 L 30.828125 5.882812 Z M 30.828125 5.5 "/>
<path style=" stroke:none;fill-rule:nonzero;fill:rgb(10.588235%,10.980392%,12.54902%);fill-opacity:1;" d="M 0.015625 11.972656 L 0.625 10.382812 L 0.851562 10.382812 L 1.503906 11.972656 L 1.265625 11.972656 L 1.082031 11.488281 L 0.414062 11.488281 L 0.242188 11.972656 Z M 0.472656 11.320312 L 1.015625 11.320312 L 0.847656 10.878906 C 0.796875 10.742188 0.761719 10.632812 0.734375 10.546875 C 0.714844 10.652344 0.6875 10.753906 0.648438 10.851562 Z M 0.472656 11.320312 "/>
<path style=" stroke:none;fill-rule:nonzero;fill:rgb(10.588235%,10.980392%,12.54902%);fill-opacity:1;" d="M 2.339844 11.972656 L 2.339844 10.382812 L 2.554688 10.382812 L 3.390625 11.625 L 3.390625 10.382812 L 3.59375 10.382812 L 3.59375 11.972656 L 3.375 11.972656 L 2.539062 10.722656 L 2.539062 11.972656 Z M 2.339844 11.972656 "/>
<path style=" stroke:none;fill-rule:nonzero;fill:rgb(10.588235%,10.980392%,12.54902%);fill-opacity:1;" d="M 4.550781 11.199219 C 4.535156 10.972656 4.613281 10.746094 4.761719 10.578125 C 4.902344 10.425781 5.101562 10.34375 5.308594 10.351562 C 5.449219 10.347656 5.585938 10.386719 5.707031 10.457031 C 5.824219 10.523438 5.917969 10.628906 5.976562 10.75 C 6.039062 10.882812 6.070312 11.03125 6.070312 11.175781 C 6.070312 11.328125 6.039062 11.476562 5.972656 11.609375 C 5.910156 11.734375 5.816406 11.832031 5.695312 11.898438 C 5.578125 11.964844 5.445312 12 5.308594 11.996094 C 5.167969 12 5.027344 11.960938 4.90625 11.882812 C 4.792969 11.8125 4.699219 11.710938 4.640625 11.589844 C 4.582031 11.464844 4.550781 11.332031 4.550781 11.199219 Z M 4.765625 11.199219 C 4.757812 11.363281 4.8125 11.523438 4.921875 11.648438 C 5.023438 11.753906 5.164062 11.816406 5.308594 11.816406 C 5.457031 11.816406 5.597656 11.753906 5.699219 11.648438 C 5.808594 11.515625 5.863281 11.347656 5.851562 11.175781 C 5.855469 11.058594 5.832031 10.941406 5.789062 10.835938 C 5.75 10.742188 5.679688 10.664062 5.597656 10.609375 C 5.511719 10.554688 5.414062 10.527344 5.3125 10.527344 C 5.167969 10.527344 5.03125 10.582031 4.925781 10.683594 C 4.820312 10.789062 4.765625 10.960938 4.765625 11.199219 Z M 4.765625 11.199219 "/>
<path style=" stroke:none;fill-rule:nonzero;fill:rgb(10.588235%,10.980392%,12.54902%);fill-opacity:1;" d="M 7.007812 11.972656 L 7.007812 10.382812 L 7.222656 10.382812 L 8.058594 11.625 L 8.058594 10.382812 L 8.261719 10.382812 L 8.261719 11.972656 L 8.042969 11.972656 L 7.210938 10.722656 L 7.210938 11.972656 Z M 7.007812 11.972656 "/>
<path style=" stroke:none;fill-rule:nonzero;fill:rgb(10.588235%,10.980392%,12.54902%);fill-opacity:1;" d="M 9.300781 10.28125 L 9.300781 10.039062 L 9.542969 10.039062 L 9.542969 10.28125 Z M 9.316406 11.980469 L 9.316406 10.382812 L 9.527344 10.382812 L 9.527344 11.972656 Z M 9.316406 11.980469 "/>
<path style=" stroke:none;fill-rule:nonzero;fill:rgb(10.588235%,10.980392%,12.54902%);fill-opacity:1;" d="M 10.558594 11.972656 L 10.558594 10.382812 L 10.875 10.382812 L 11.253906 11.511719 C 11.289062 11.617188 11.3125 11.695312 11.328125 11.746094 C 11.347656 11.691406 11.375 11.605469 11.414062 11.492188 L 11.792969 10.382812 L 12.078125 10.382812 L 12.078125 11.976562 L 11.878906 11.976562 L 11.878906 10.640625 L 11.417969 11.972656 L 11.226562 11.972656 L 10.765625 10.617188 L 10.765625 11.972656 Z M 10.558594 11.972656 "/>
<path style=" stroke:none;fill-rule:nonzero;fill:rgb(10.588235%,10.980392%,12.54902%);fill-opacity:1;" d="M 14.304688 11.199219 C 14.289062 10.96875 14.367188 10.746094 14.515625 10.578125 C 14.660156 10.425781 14.859375 10.34375 15.066406 10.351562 C 15.207031 10.347656 15.34375 10.386719 15.464844 10.457031 C 15.582031 10.523438 15.675781 10.628906 15.734375 10.75 C 15.796875 10.882812 15.828125 11.03125 15.824219 11.175781 C 15.828125 11.328125 15.792969 11.476562 15.726562 11.609375 C 15.667969 11.734375 15.570312 11.832031 15.449219 11.898438 C 15.332031 11.964844 15.199219 12 15.066406 11.996094 C 14.921875 12 14.785156 11.960938 14.664062 11.882812 C 14.546875 11.8125 14.453125 11.710938 14.394531 11.589844 C 14.335938 11.464844 14.304688 11.332031 14.304688 11.199219 Z M 14.519531 11.199219 C 14.511719 11.363281 14.566406 11.523438 14.675781 11.648438 C 14.777344 11.753906 14.917969 11.816406 15.066406 11.816406 C 15.210938 11.816406 15.351562 11.753906 15.457031 11.648438 C 15.566406 11.515625 15.621094 11.347656 15.609375 11.175781 C 15.613281 11.058594 15.589844 10.941406 15.542969 10.835938 C 15.503906 10.742188 15.4375 10.664062 15.351562 10.609375 C 15.265625 10.554688 15.167969 10.527344 15.066406 10.527344 C 14.921875 10.527344 14.785156 10.582031 14.683594 10.683594 C 14.574219 10.789062 14.519531 10.960938 14.519531 11.199219 Z M 14.519531 11.199219 "/>
<path style=" stroke:none;fill-rule:nonzero;fill:rgb(10.588235%,10.980392%,12.54902%);fill-opacity:1;" d="M 16.765625 11.972656 L 16.765625 10.382812 L 17.472656 10.382812 C 17.582031 10.375 17.691406 10.390625 17.796875 10.425781 C 17.871094 10.453125 17.933594 10.507812 17.972656 10.574219 C 18.015625 10.648438 18.039062 10.730469 18.039062 10.816406 C 18.042969 10.921875 18 11.023438 17.925781 11.101562 C 17.832031 11.1875 17.714844 11.238281 17.585938 11.25 C 17.632812 11.269531 17.675781 11.296875 17.714844 11.328125 C 17.78125 11.390625 17.839844 11.460938 17.890625 11.539062 L 18.164062 11.972656 L 17.902344 11.972656 L 17.691406 11.640625 C 17.628906 11.546875 17.578125 11.472656 17.539062 11.421875 C 17.507812 11.382812 17.472656 11.34375 17.429688 11.316406 C 17.402344 11.296875 17.371094 11.28125 17.335938 11.273438 C 17.296875 11.269531 17.261719 11.265625 17.222656 11.265625 L 16.976562 11.265625 L 16.976562 11.972656 Z M 16.976562 11.082031 L 17.429688 11.082031 C 17.503906 11.085938 17.582031 11.074219 17.65625 11.054688 C 17.707031 11.035156 17.75 11.003906 17.777344 10.957031 C 17.804688 10.914062 17.820312 10.867188 17.820312 10.816406 C 17.824219 10.742188 17.792969 10.675781 17.738281 10.628906 C 17.664062 10.574219 17.570312 10.546875 17.480469 10.554688 L 16.976562 10.554688 Z M 16.976562 11.082031 "/>
<path style=" stroke:none;fill-rule:nonzero;fill:rgb(10.588235%,10.980392%,12.54902%);fill-opacity:1;" d="M 19.402344 11.972656 L 19.402344 10.570312 L 18.875 10.570312 L 18.875 10.382812 L 20.136719 10.382812 L 20.136719 10.570312 L 19.609375 10.570312 L 19.609375 11.972656 Z M 19.402344 11.972656 "/>
<path style=" stroke:none;fill-rule:nonzero;fill:rgb(10.588235%,10.980392%,12.54902%);fill-opacity:1;" d="M 20.679688 11.972656 L 21.292969 10.382812 L 21.519531 10.382812 L 22.167969 11.972656 L 21.933594 11.972656 L 21.742188 11.488281 L 21.078125 11.488281 L 20.90625 11.972656 Z M 21.140625 11.320312 L 21.679688 11.320312 L 21.511719 10.878906 C 21.460938 10.742188 21.425781 10.632812 21.398438 10.546875 C 21.378906 10.652344 21.351562 10.753906 21.316406 10.851562 Z M 21.140625 11.320312 "/>
<path style=" stroke:none;fill-rule:nonzero;fill:rgb(10.588235%,10.980392%,12.54902%);fill-opacity:1;" d="M 22.996094 11.972656 L 22.996094 10.382812 L 23.207031 10.382812 L 23.207031 11.171875 L 23.996094 10.382812 L 24.285156 10.382812 L 23.617188 11.027344 L 24.3125 11.972656 L 24.035156 11.972656 L 23.46875 11.167969 L 23.210938 11.421875 L 23.210938 11.972656 Z M 22.996094 11.972656 "/>
<path style=" stroke:none;fill-rule:nonzero;fill:rgb(10.588235%,10.980392%,12.54902%);fill-opacity:1;" d="M 25.144531 11.972656 L 25.144531 10.382812 L 25.355469 10.382812 L 25.355469 11.785156 L 26.140625 11.785156 L 26.140625 11.972656 Z M 25.144531 11.972656 "/>
<path style=" stroke:none;fill-rule:nonzero;fill:rgb(10.588235%,10.980392%,12.54902%);fill-opacity:1;" d="M 27.09375 11.972656 L 27.09375 10.382812 L 27.304688 10.382812 L 27.304688 11.972656 Z M 27.09375 11.972656 "/>
<path style=" stroke:none;fill-rule:nonzero;fill:rgb(10.588235%,10.980392%,12.54902%);fill-opacity:1;" d="M 29.085938 11.347656 L 29.085938 11.160156 L 29.765625 11.160156 L 29.765625 11.753906 C 29.667969 11.832031 29.558594 11.894531 29.445312 11.9375 C 29.335938 11.980469 29.222656 12 29.105469 12 C 28.957031 12.003906 28.8125 11.96875 28.679688 11.902344 C 28.554688 11.835938 28.453125 11.734375 28.390625 11.609375 C 28.324219 11.476562 28.292969 11.332031 28.292969 11.183594 C 28.292969 11.035156 28.324219 10.886719 28.390625 10.753906 C 28.449219 10.625 28.546875 10.519531 28.667969 10.453125 C 28.796875 10.386719 28.941406 10.355469 29.085938 10.359375 C 29.191406 10.359375 29.296875 10.375 29.398438 10.414062 C 29.480469 10.445312 29.558594 10.496094 29.617188 10.566406 C 29.671875 10.644531 29.714844 10.730469 29.734375 10.824219 L 29.546875 10.878906 C 29.527344 10.808594 29.5 10.746094 29.457031 10.6875 C 29.417969 10.636719 29.363281 10.597656 29.304688 10.574219 C 29.234375 10.546875 29.160156 10.53125 29.085938 10.53125 C 29 10.53125 28.917969 10.546875 28.835938 10.578125 C 28.773438 10.601562 28.714844 10.640625 28.664062 10.691406 C 28.625 10.738281 28.589844 10.789062 28.566406 10.847656 C 28.523438 10.949219 28.503906 11.058594 28.503906 11.167969 C 28.5 11.289062 28.527344 11.414062 28.578125 11.523438 C 28.625 11.617188 28.699219 11.691406 28.792969 11.738281 C 28.882812 11.78125 28.988281 11.808594 29.089844 11.808594 C 29.179688 11.804688 29.273438 11.789062 29.355469 11.753906 C 29.429688 11.726562 29.496094 11.6875 29.554688 11.640625 L 29.554688 11.34375 Z M 29.296875 10 L 29.433594 10 C 29.425781 10.082031 29.390625 10.15625 29.332031 10.210938 C 29.269531 10.261719 29.191406 10.285156 29.113281 10.28125 C 29.03125 10.289062 28.949219 10.261719 28.886719 10.210938 C 28.828125 10.15625 28.792969 10.082031 28.789062 10 L 28.921875 10 C 28.925781 10.046875 28.949219 10.085938 28.980469 10.113281 C 29.015625 10.140625 29.058594 10.152344 29.101562 10.152344 C 29.148438 10.152344 29.195312 10.140625 29.234375 10.117188 C 29.269531 10.085938 29.292969 10.046875 29.296875 10 Z M 29.296875 10 "/>
<path style=" stroke:none;fill-rule:nonzero;fill:rgb(10.588235%,10.980392%,12.54902%);fill-opacity:1;" d="M 30.773438 11.972656 L 30.773438 10.382812 L 30.984375 10.382812 L 30.984375 11.972656 Z M 30.773438 11.972656 "/>
</g>
</svg>
