<?xml version="1.0" encoding="UTF-8"?>
<svg xmlns="http://www.w3.org/2000/svg" xmlns:xlink="http://www.w3.org/1999/xlink" width="300px" height="116px" viewBox="0 0 299 116" version="1.1">
<g id="surface1">
<path style=" stroke:none;fill-rule:nonzero;fill:rgb(90.196079%,0%,1.568628%);fill-opacity:1;" d="M 101.886719 15.003906 C 101.789062 11.800781 101.046875 9.046875 99.359375 7.355469 C 97.421875 5.621094 95.046875 4.449219 92.492188 3.976562 C 78.855469 1.289062 64.980469 -0.0195312 51.082031 0.078125 C 37.183594 -0.0195312 23.3125 1.289062 9.675781 3.976562 L 9.632812 3.976562 C 7.074219 4.460938 4.699219 5.640625 2.765625 7.386719 C 1.078125 9.101562 0.335938 11.855469 0.25 15.035156 C 0.0078125 27.050781 0.734375 39.0625 2.429688 50.957031 C 3.753906 60.433594 5.703125 69.8125 8.257812 79.03125 C 9.6875 83.75 12.398438 86.953125 17.214844 87.71875 C 28.390625 89.492188 39.683594 90.382812 50.996094 90.375 C 62.308594 90.382812 73.605469 89.492188 84.777344 87.71875 C 89.605469 86.953125 92.308594 83.75 93.734375 79.03125 C 96.320312 69.816406 98.296875 60.441406 99.652344 50.96875 C 101.359375 39.058594 102.105469 27.03125 101.886719 15.003906 Z M 101.886719 15.003906 "/>
<path style=" stroke:none;fill-rule:nonzero;fill:rgb(100%,100%,100%);fill-opacity:1;" d="M 51.050781 88.011719 C 39.84375 88.019531 28.65625 87.144531 17.585938 85.390625 C 14.066406 84.84375 11.8125 82.582031 10.523438 78.289062 C 7.996094 69.179688 6.074219 59.914062 4.773438 50.550781 C 3.085938 38.78125 2.355469 26.894531 2.59375 15.003906 C 2.667969 12.183594 3.3125 10.074219 4.457031 8.917969 C 6.085938 7.5 8.066406 6.546875 10.1875 6.164062 L 10.328125 6.164062 C 23.609375 3.566406 37.117188 2.289062 50.648438 2.347656 L 51.433594 2.347656 C 65 2.28125 78.542969 3.558594 91.859375 6.164062 L 91.949219 6.164062 C 94.082031 6.554688 96.070312 7.515625 97.699219 8.949219 C 98.789062 10.109375 99.488281 12.226562 99.574219 15.058594 C 99.808594 26.941406 99.078125 38.820312 97.394531 50.585938 C 96.09375 59.960938 94.167969 69.234375 91.632812 78.351562 C 90.355469 82.570312 88.101562 84.824219 84.546875 85.378906 C 73.488281 87.132812 62.304688 88.007812 51.105469 88.003906 Z M 51.050781 88.011719 "/>
<path style=" stroke:none;fill-rule:nonzero;fill:rgb(100%,100%,100%);fill-opacity:1;" d="M 64.03125 34.140625 L 54.125 34.140625 C 53.796875 34.171875 53.546875 34.441406 53.535156 34.773438 L 52.292969 55.929688 C 52.273438 56.082031 52.320312 56.234375 52.417969 56.351562 C 52.511719 56.46875 52.652344 56.542969 52.804688 56.550781 L 55.148438 56.550781 C 55.472656 56.523438 55.722656 56.253906 55.726562 55.929688 L 56.160156 48.421875 L 63.203125 48.421875 C 64.269531 48.484375 65.1875 47.667969 65.25 46.597656 L 65.839844 36.09375 C 65.875 35.589844 65.699219 35.09375 65.359375 34.722656 C 65.015625 34.351562 64.535156 34.140625 64.03125 34.140625 Z M 64.03125 34.140625 "/>
<path style=" stroke:none;fill-rule:nonzero;fill:rgb(90.196079%,0%,5.098039%);fill-opacity:1;" d="M 61.175781 37.984375 L 57.089844 37.984375 L 56.414062 44.410156 L 60.792969 44.695312 C 61.035156 44.707031 61.273438 44.621094 61.453125 44.457031 C 61.632812 44.292969 61.742188 44.066406 61.753906 43.820312 L 62.035156 38.847656 C 62.042969 38.617188 61.957031 38.390625 61.796875 38.226562 C 61.636719 38.058594 61.417969 37.964844 61.183594 37.964844 "/>
<path style=" stroke:none;fill-rule:nonzero;fill:rgb(100%,100%,100%);fill-opacity:1;" d="M 49.535156 34.140625 L 37.199219 34.140625 C 36.855469 34.144531 36.570312 34.40625 36.535156 34.75 L 36.394531 37.328125 C 36.386719 37.488281 36.441406 37.644531 36.550781 37.757812 C 36.660156 37.871094 36.8125 37.933594 36.972656 37.929688 L 40.722656 37.929688 C 41.222656 37.996094 41.449219 38.269531 41.386719 38.75 L 40.382812 55.929688 C 40.359375 56.078125 40.398438 56.234375 40.496094 56.351562 C 40.589844 56.472656 40.730469 56.542969 40.882812 56.550781 L 43.226562 56.550781 C 43.550781 56.523438 43.800781 56.253906 43.804688 55.929688 L 44.828125 38.695312 C 44.828125 38.191406 45.132812 37.941406 45.746094 37.929688 L 49.328125 37.929688 C 49.667969 37.925781 49.949219 37.667969 49.984375 37.328125 L 50.136719 34.75 C 50.144531 34.585938 50.085938 34.429688 49.972656 34.3125 C 49.855469 34.195312 49.699219 34.132812 49.535156 34.140625 Z M 49.535156 34.140625 "/>
<path style=" stroke:none;fill-rule:nonzero;fill:rgb(90.196079%,0%,1.568628%);fill-opacity:1;" d="M 74.5 38.476562 L 74.851562 38.324219 C 76.484375 37.667969 77.476562 37.503906 78.5 37.941406 C 79.101562 38.191406 79.4375 37.636719 78.902344 37.230469 C 77.59375 35.882812 75.777344 35.148438 73.902344 35.210938 C 75.472656 34.894531 75.917969 34.402344 77.433594 33.996094 C 79.164062 33.566406 80.996094 33.921875 82.445312 34.96875 C 82.980469 35.296875 83.425781 34.773438 83.042969 34.3125 C 80.039062 30.585938 75.046875 29.625 70.773438 30.785156 L 71.046875 30.53125 C 72.367188 29.339844 73.226562 28.839844 74.316406 28.894531 C 74.96875 28.894531 75.089844 28.292969 74.457031 28.097656 C 72.765625 27.285156 70.816406 27.222656 69.074219 27.921875 C 70.4375 27.089844 70.699219 26.457031 71.984375 25.558594 C 73.460938 24.539062 75.316406 24.238281 77.039062 24.742188 C 77.671875 24.859375 77.914062 24.214844 77.398438 23.910156 C 73.3125 21.453125 68.300781 22.28125 64.660156 24.851562 C 64.726562 24.742188 64.78125 24.621094 64.847656 24.523438 C 65.6875 22.949219 66.328125 22.171875 67.398438 21.835938 C 68.019531 21.636719 67.910156 21.003906 67.253906 21.023438 C 65.386719 20.851562 63.53125 21.472656 62.144531 22.742188 C 63.136719 21.484375 63.167969 20.808594 64.074219 19.460938 C 65.117188 18.007812 66.746094 17.085938 68.53125 16.949219 C 69.140625 16.851562 69.160156 16.164062 68.53125 16.054688 C 63.867188 15.15625 59.429688 17.679688 56.882812 21.34375 C 56.882812 21.222656 56.882812 21.089844 56.882812 20.96875 C 57.132812 19.199219 57.492188 18.25 58.375 17.570312 C 58.898438 17.167969 58.582031 16.597656 57.972656 16.863281 C 56.152344 17.347656 54.621094 18.570312 53.742188 20.238281 C 54.253906 18.707031 54.046875 18.054688 54.472656 16.523438 C 55.003906 14.8125 56.261719 13.421875 57.90625 12.71875 C 58.449219 12.402344 58.242188 11.746094 57.65625 11.847656 C 52.957031 12.621094 49.632812 16.535156 48.492188 20.863281 C 48.492188 20.742188 48.492188 20.609375 48.402344 20.488281 C 48.054688 18.742188 48.054688 17.726562 48.664062 16.773438 C 49.011719 16.21875 48.535156 15.789062 48.042969 16.25 C 46.5 17.339844 45.476562 19.019531 45.210938 20.894531 C 45.210938 19.277344 44.773438 18.707031 44.644531 17.144531 C 44.511719 15.335938 45.175781 13.558594 46.464844 12.28125 C 46.878906 11.800781 46.464844 11.265625 45.929688 11.5625 C 41.789062 13.921875 39.980469 18.742188 40.359375 23.199219 L 40.164062 22.882812 C 39.238281 21.363281 38.902344 20.402344 39.152344 19.308594 C 39.292969 18.664062 38.695312 18.425781 38.390625 19.027344 C 37.308594 20.578125 36.914062 22.507812 37.300781 24.359375 C 36.722656 22.859375 36.15625 22.5 35.5 21.078125 C 34.78125 19.425781 34.8125 17.539062 35.589844 15.910156 C 35.804688 15.308594 35.230469 14.960938 34.835938 15.417969 C 31.742188 19.070312 31.664062 24.214844 33.527344 28.28125 L 33.246094 28.0625 C 31.863281 26.96875 31.21875 26.160156 31.066406 25.035156 C 30.988281 24.390625 30.347656 24.371094 30.269531 25.035156 C 29.765625 26.859375 30.042969 28.8125 31.035156 30.421875 C 29.945312 29.222656 29.332031 29.066406 28.222656 27.941406 C 26.992188 26.628906 26.390625 24.847656 26.566406 23.058594 C 26.566406 22.425781 25.902344 22.28125 25.695312 22.851562 C 24.015625 27.363281 25.695312 32.214844 28.808594 35.394531 L 28.460938 35.285156 C 26.792969 34.71875 25.921875 34.195312 25.410156 33.199219 C 25.117188 32.621094 24.515625 32.816406 24.660156 33.484375 C 24.8125 35.363281 25.730469 37.097656 27.199219 38.28125 C 25.8125 37.503906 25.160156 37.59375 23.730469 36.914062 C 22.128906 36.117188 20.953125 34.65625 20.519531 32.914062 C 20.300781 32.304688 19.636719 32.414062 19.625 33.011719 C 19.746094 37.671875 22.539062 41.839844 26.792969 43.710938 L 26.425781 43.710938 C 24.667969 43.765625 23.667969 43.582031 22.859375 42.816406 C 22.382812 42.355469 21.878906 42.816406 22.238281 43.339844 C 23.027344 45.070312 24.5 46.390625 26.304688 46.980469 C 24.734375 46.738281 24.125 47.042969 22.578125 46.890625 C 20.808594 46.695312 19.214844 45.726562 18.21875 44.246094 C 17.816406 43.753906 17.226562 44.082031 17.421875 44.652344 C 18.992188 49.199219 23.371094 51.832031 27.773438 52.234375 L 27.425781 52.367188 C 25.792969 53.035156 24.800781 53.195312 23.777344 52.761719 C 23.175781 52.507812 22.839844 53.054688 23.371094 53.46875 C 24.683594 54.8125 26.492188 55.546875 28.363281 55.492188 C 26.816406 55.808594 26.359375 56.300781 24.832031 56.703125 C 23.085938 57.164062 21.222656 56.808594 19.765625 55.734375 C 19.222656 55.40625 18.761719 55.929688 19.144531 56.386719 C 22.1875 59.886719 26.996094 61.269531 31.425781 59.917969 C 31.339844 60.007812 31.25 60.089844 31.152344 60.167969 C 29.84375 61.359375 28.972656 61.863281 27.882812 61.808594 C 27.230469 61.808594 27.109375 62.410156 27.742188 62.617188 C 29.433594 63.425781 31.386719 63.484375 33.125 62.78125 C 31.761719 63.613281 31.503906 64.234375 30.214844 65.140625 C 28.742188 66.148438 26.898438 66.445312 25.183594 65.960938 C 24.570312 65.839844 24.320312 66.484375 24.832031 66.792969 C 28.910156 69.25 33.933594 68.453125 37.550781 65.851562 L 37.386719 66.191406 C 36.546875 67.765625 35.894531 68.527344 34.824219 68.867188 C 34.203125 69.066406 34.300781 69.710938 34.96875 69.675781 C 36.835938 69.847656 38.6875 69.226562 40.078125 67.960938 C 39.085938 69.21875 39.054688 69.894531 38.148438 71.238281 C 37.105469 72.691406 35.472656 73.605469 33.691406 73.742188 C 33.070312 73.851562 33.058594 74.539062 33.691406 74.648438 C 38.355469 75.542969 42.800781 73.019531 45.339844 69.359375 C 45.339844 69.480469 45.339844 69.609375 45.339844 69.730469 C 45.089844 71.5 44.730469 72.453125 43.847656 73.140625 C 43.324219 73.535156 43.628906 74.101562 44.25 73.839844 C 46.066406 73.359375 47.597656 72.132812 48.46875 70.464844 C 47.96875 71.992188 48.164062 72.648438 47.75 74.179688 C 47.261719 75.902344 46.042969 77.324219 44.414062 78.070312 C 43.859375 78.386719 44.089844 79.03125 44.664062 78.945312 C 49.363281 78.167969 52.6875 74.253906 53.828125 69.929688 C 53.828125 70.046875 53.828125 70.179688 53.90625 70.289062 C 54.265625 72.046875 54.253906 73.0625 53.65625 74.015625 C 53.308594 74.570312 53.777344 75 54.277344 74.539062 C 55.816406 73.453125 56.839844 71.777344 57.109375 69.90625 C 57.109375 71.511719 57.546875 72.089844 57.664062 73.632812 C 57.75 75.433594 57.039062 77.179688 55.726562 78.40625 C 55.3125 78.898438 55.726562 79.433594 56.261719 79.140625 C 60.410156 76.78125 62.199219 71.960938 61.828125 67.5 L 62.023438 67.820312 C 62.949219 69.335938 63.277344 70.300781 63.039062 71.402344 C 62.894531 72.035156 63.484375 72.265625 63.800781 71.675781 C 64.875 70.121094 65.269531 68.195312 64.890625 66.34375 C 65.46875 67.839844 65.980469 68.203125 66.6875 69.621094 C 67.417969 71.28125 67.394531 73.171875 66.621094 74.8125 C 66.394531 75.402344 66.972656 75.761719 67.363281 75.304688 C 70.457031 71.65625 70.523438 66.496094 68.660156 62.441406 C 68.757812 62.507812 68.855469 62.59375 68.953125 62.671875 C 70.339844 63.765625 70.980469 64.5625 71.132812 65.675781 C 71.210938 66.332031 71.84375 66.355469 71.941406 65.675781 C 72.433594 63.847656 72.148438 61.898438 71.15625 60.289062 C 72.246094 61.492188 72.855469 61.644531 73.96875 62.769531 C 75.203125 64.078125 75.808594 65.863281 75.636719 67.65625 C 75.636719 68.289062 76.289062 68.429688 76.496094 67.863281 C 78.183594 63.347656 76.496094 58.484375 73.390625 55.316406 L 73.738281 55.425781 C 75.40625 55.996094 76.277344 56.519531 76.789062 57.515625 C 77.074219 58.09375 77.683594 57.894531 77.542969 57.230469 C 77.386719 55.347656 76.464844 53.613281 74.992188 52.433594 C 76.386719 53.195312 77.050781 53.121094 78.480469 53.796875 C 80.078125 54.601562 81.25 56.066406 81.683594 57.808594 C 81.902344 58.398438 82.566406 58.300781 82.574219 57.699219 C 82.460938 53.035156 79.664062 48.863281 75.40625 46.988281 L 75.777344 46.988281 C 77.542969 46.933594 78.523438 47.132812 79.339844 47.886719 C 79.820312 48.335938 80.320312 47.886719 79.960938 47.363281 C 79.179688 45.648438 77.722656 44.332031 75.941406 43.734375 C 77.519531 43.972656 78.121094 43.667969 79.667969 43.820312 C 81.4375 44.015625 83.03125 44.984375 84.027344 46.464844 C 84.429688 46.957031 85.015625 46.628906 84.820312 46.0625 C 83.285156 41.503906 78.902344 38.871094 74.5 38.476562 Z M 49.972656 37.382812 C 49.9375 37.722656 49.65625 37.980469 49.320312 37.984375 L 45.734375 37.984375 C 45.125 37.984375 44.828125 38.246094 44.816406 38.75 L 43.804688 55.984375 C 43.800781 56.308594 43.550781 56.578125 43.226562 56.605469 L 40.882812 56.605469 C 40.730469 56.597656 40.589844 56.527344 40.496094 56.40625 C 40.398438 56.289062 40.359375 56.132812 40.382812 55.984375 L 41.386719 38.804688 C 41.449219 38.324219 41.222656 38.050781 40.722656 37.984375 L 36.972656 37.984375 C 36.8125 37.988281 36.660156 37.925781 36.550781 37.8125 C 36.441406 37.699219 36.386719 37.542969 36.394531 37.382812 L 36.535156 34.804688 C 36.542969 34.441406 36.835938 34.144531 37.199219 34.140625 L 49.535156 34.140625 C 49.699219 34.136719 49.851562 34.199219 49.964844 34.316406 C 50.074219 34.433594 50.132812 34.589844 50.125 34.75 Z M 65.226562 46.609375 C 65.207031 47.128906 64.980469 47.621094 64.59375 47.972656 C 64.210938 48.324219 63.699219 48.507812 63.179688 48.476562 L 56.160156 48.476562 L 55.726562 55.929688 C 55.722656 56.253906 55.472656 56.523438 55.148438 56.550781 L 52.804688 56.550781 C 52.652344 56.542969 52.511719 56.46875 52.417969 56.351562 C 52.320312 56.234375 52.273438 56.082031 52.292969 55.929688 L 53.546875 34.773438 C 53.554688 34.441406 53.808594 34.171875 54.136719 34.140625 L 64.039062 34.140625 C 64.535156 34.140625 65.011719 34.347656 65.351562 34.707031 C 65.695312 35.070312 65.875 35.554688 65.847656 36.050781 Z M 65.226562 46.609375 "/>
<path style=" stroke:none;fill-rule:nonzero;fill:rgb(10.588235%,10.980392%,12.54902%);fill-opacity:1;" d="M 132.179688 46.652344 L 132.179688 22.183594 L 141.003906 22.183594 L 141.003906 17.199219 L 117.304688 17.199219 L 117.304688 22.183594 L 126.152344 22.183594 L 126.152344 46.652344 Z M 144.851562 32.902344 C 144.785156 35.410156 144.980469 37.914062 145.441406 40.378906 C 145.738281 41.589844 146.316406 42.710938 147.128906 43.65625 C 148.074219 44.773438 149.273438 45.644531 150.628906 46.191406 C 152.699219 46.945312 154.898438 47.277344 157.101562 47.164062 C 159.050781 47.238281 160.996094 46.9375 162.832031 46.28125 C 164.175781 45.769531 165.378906 44.945312 166.339844 43.875 C 167.25 42.820312 167.871094 41.546875 168.148438 40.183594 C 168.546875 37.703125 168.710938 35.195312 168.628906 32.683594 L 168.628906 17.199219 L 162.613281 17.199219 L 162.613281 33.484375 C 162.65625 35.15625 162.566406 36.828125 162.34375 38.488281 C 162.167969 39.503906 161.609375 40.410156 160.785156 41.023438 C 159.65625 41.816406 158.292969 42.203125 156.914062 42.117188 C 155.507812 42.191406 154.113281 41.808594 152.9375 41.023438 C 151.984375 40.324219 151.328125 39.289062 151.105469 38.128906 C 150.898438 36.492188 150.820312 34.84375 150.867188 33.199219 L 150.867188 17.199219 L 144.851562 17.199219 Z M 154.886719 10.675781 L 149.984375 10.675781 L 149.984375 15.519531 L 154.886719 15.519531 Z M 163.605469 10.675781 L 158.679688 10.675781 L 158.679688 15.519531 L 163.605469 15.519531 Z M 181.042969 46.652344 L 181.042969 34.355469 L 182.261719 34.355469 C 183.28125 34.3125 184.304688 34.421875 185.292969 34.683594 C 185.984375 34.945312 186.609375 35.363281 187.109375 35.910156 C 188.25 37.304688 189.304688 38.761719 190.269531 40.28125 L 194.628906 46.695312 L 201.832031 46.695312 L 198.191406 40.945312 C 197.191406 39.253906 196.042969 37.652344 194.761719 36.160156 C 193.800781 35.179688 192.699219 34.351562 191.492188 33.703125 C 193.714844 33.492188 195.800781 32.515625 197.386719 30.9375 C 198.71875 29.4375 199.425781 27.480469 199.359375 25.472656 C 199.386719 23.828125 198.933594 22.214844 198.050781 20.828125 C 197.25 19.519531 196.027344 18.527344 194.585938 18.007812 C 192.324219 17.375 189.980469 17.105469 187.632812 17.210938 L 175.003906 17.210938 L 175.003906 46.652344 Z M 181.042969 22.183594 L 185.738281 22.183594 C 188.179688 22.183594 189.648438 22.183594 190.097656 22.28125 C 190.964844 22.386719 191.769531 22.796875 192.363281 23.441406 C 192.925781 24.109375 193.214844 24.96875 193.167969 25.84375 C 193.199219 26.617188 192.992188 27.382812 192.570312 28.03125 C 192.160156 28.625 191.566406 29.066406 190.882812 29.285156 C 189.085938 29.621094 187.257812 29.742188 185.433594 29.648438 L 181.042969 29.648438 Z M 211.191406 46.652344 L 211.191406 37.746094 L 216.074219 32.828125 L 224.269531 46.652344 L 232.070312 46.652344 L 220.269531 28.675781 L 231.503906 17.199219 L 223.410156 17.199219 L 211.238281 30.3125 L 211.238281 17.199219 L 205.210938 17.199219 L 205.210938 46.652344 Z M 240.976562 17.199219 L 234.960938 17.199219 L 234.960938 46.652344 L 240.976562 46.652344 Z M 240.832031 10.175781 L 235.222656 10.175781 L 235.222656 15.519531 L 240.832031 15.519531 Z M 260.589844 46.652344 L 260.589844 34.292969 L 271.550781 17.199219 L 264.621094 17.199219 L 257.734375 28.851562 L 250.714844 17.199219 L 243.65625 17.199219 L 254.550781 34.257812 L 254.550781 46.652344 Z M 297.234375 46.652344 L 297.234375 41.679688 L 280.5625 41.679688 L 280.5625 33.667969 L 295.535156 33.667969 L 295.535156 28.707031 L 280.5625 28.707031 L 280.5625 22.152344 L 296.660156 22.152344 L 296.660156 17.199219 L 274.546875 17.199219 L 274.546875 46.652344 Z M 297.234375 46.652344 "/>
<path style=" stroke:none;fill-rule:nonzero;fill:rgb(10.588235%,10.980392%,12.54902%);fill-opacity:1;" d="M 121.730469 78.910156 L 121.730469 71.054688 L 124.464844 71.054688 C 125.921875 71.085938 127.382812 70.988281 128.824219 70.757812 C 129.609375 70.574219 130.347656 70.238281 131.003906 69.765625 C 131.75 69.234375 132.359375 68.53125 132.769531 67.710938 C 133.269531 66.710938 133.511719 65.601562 133.476562 64.484375 C 133.539062 63.03125 133.113281 61.601562 132.265625 60.421875 C 131.527344 59.421875 130.46875 58.703125 129.269531 58.386719 C 127.621094 58.105469 125.949219 58 124.277344 58.070312 L 117.542969 58.070312 L 117.542969 78.910156 Z M 123.757812 61.589844 C 124.765625 61.5625 125.773438 61.613281 126.773438 61.742188 C 127.425781 61.84375 128.023438 62.167969 128.464844 62.660156 C 128.921875 63.175781 129.164062 63.851562 129.140625 64.539062 C 129.152344 65.117188 128.984375 65.683594 128.660156 66.15625 C 128.339844 66.625 127.882812 66.984375 127.351562 67.183594 C 126.265625 67.464844 125.140625 67.578125 124.015625 67.511719 L 121.730469 67.511719 L 121.730469 61.589844 Z M 152.710938 78.910156 L 152.710938 75.402344 L 141.105469 75.402344 L 141.105469 69.730469 L 151.542969 69.730469 L 151.542969 66.265625 L 141.105469 66.265625 L 141.105469 61.589844 L 152.316406 61.589844 L 152.316406 58.070312 L 136.910156 58.070312 L 136.910156 78.910156 Z M 165.144531 78.910156 L 165.144531 61.589844 L 171.300781 61.589844 L 171.300781 58.070312 L 154.78125 58.070312 L 154.78125 61.589844 L 160.957031 61.589844 L 160.957031 78.910156 Z M 178.21875 78.910156 L 178.21875 70.167969 L 179.058594 70.167969 C 179.769531 70.144531 180.480469 70.21875 181.171875 70.398438 C 181.65625 70.585938 182.089844 70.882812 182.4375 71.273438 C 183.222656 72.246094 183.953125 73.269531 184.617188 74.332031 L 187.644531 78.867188 L 192.667969 78.867188 L 190.128906 74.800781 C 189.433594 73.609375 188.632812 72.480469 187.742188 71.425781 C 187.085938 70.730469 186.328125 70.136719 185.5 69.664062 C 187.050781 69.535156 188.507812 68.855469 189.605469 67.742188 C 190.539062 66.675781 191.03125 65.292969 190.980469 63.875 C 191 62.714844 190.6875 61.578125 190.074219 60.59375 C 189.523438 59.691406 188.6875 58.996094 187.699219 58.617188 C 186.128906 58.167969 184.492188 57.976562 182.859375 58.050781 L 174.023438 58.050781 L 174.023438 78.910156 Z M 178.21875 61.589844 L 181.488281 61.589844 C 183.1875 61.589844 184.203125 61.589844 184.550781 61.667969 C 185.15625 61.746094 185.714844 62.039062 186.128906 62.484375 C 186.515625 62.960938 186.714844 63.566406 186.6875 64.179688 C 186.710938 64.734375 186.5625 65.285156 186.261719 65.753906 C 185.980469 66.171875 185.566406 66.480469 185.085938 66.628906 C 183.84375 66.867188 182.578125 66.957031 181.3125 66.890625 L 178.21875 66.890625 Z M 196.851562 76.429688 C 201.015625 80.242188 207.390625 80.242188 211.554688 76.429688 C 213.46875 74.261719 214.449219 71.421875 214.277344 68.527344 C 214.464844 65.617188 213.484375 62.753906 211.554688 60.574219 C 209.613281 58.628906 206.949219 57.59375 204.207031 57.722656 C 202.675781 57.6875 201.152344 57.960938 199.730469 58.53125 C 198.714844 58.972656 197.800781 59.617188 197.039062 60.421875 C 196.230469 61.246094 195.578125 62.214844 195.109375 63.273438 C 194.421875 64.972656 194.09375 66.792969 194.152344 68.628906 C 193.988281 71.488281 194.972656 74.296875 196.886719 76.429688 M 200.066406 63.097656 C 201.160156 61.96875 202.664062 61.328125 204.234375 61.328125 C 205.804688 61.328125 207.308594 61.96875 208.402344 63.097656 C 209.558594 64.632812 210.109375 66.539062 209.949219 68.453125 C 210.105469 70.410156 209.535156 72.355469 208.347656 73.917969 C 207.289062 75.078125 205.789062 75.738281 204.21875 75.738281 C 202.648438 75.738281 201.148438 75.078125 200.089844 73.917969 C 198.882812 72.367188 198.304688 70.414062 198.476562 68.453125 C 198.328125 66.523438 198.894531 64.605469 200.066406 63.066406 M 232.332031 78.878906 L 232.332031 75.402344 L 221.90625 75.402344 L 221.90625 58.234375 L 217.710938 58.234375 L 217.710938 78.910156 Z M 250.074219 78.878906 L 250.074219 75.402344 L 239.632812 75.402344 L 239.632812 58.234375 L 235.417969 58.234375 L 235.417969 78.910156 Z M 268.871094 78.878906 L 268.871094 75.402344 L 257.242188 75.402344 L 257.242188 69.730469 L 267.683594 69.730469 L 267.683594 66.265625 L 257.242188 66.265625 L 257.242188 61.589844 L 268.46875 61.589844 L 268.46875 58.070312 L 253.046875 58.070312 L 253.046875 78.910156 Z M 276.652344 78.878906 L 276.652344 70.136719 L 277.5 70.136719 C 278.210938 70.109375 278.917969 70.1875 279.605469 70.363281 C 280.089844 70.550781 280.527344 70.851562 280.878906 71.238281 C 281.667969 72.210938 282.398438 73.234375 283.058594 74.300781 L 286.097656 78.835938 L 291.101562 78.835938 L 288.5625 74.769531 C 287.867188 73.574219 287.0625 72.441406 286.164062 71.390625 C 285.507812 70.695312 284.753906 70.101562 283.917969 69.632812 C 285.472656 69.503906 286.929688 68.820312 288.027344 67.710938 C 288.972656 66.648438 289.46875 65.261719 289.410156 63.839844 C 289.429688 62.683594 289.113281 61.542969 288.496094 60.5625 C 287.9375 59.667969 287.097656 58.984375 286.109375 58.617188 C 284.542969 58.179688 282.917969 57.996094 281.292969 58.070312 L 272.46875 58.070312 L 272.46875 78.910156 Z M 276.652344 61.558594 L 279.921875 61.558594 C 281.621094 61.558594 282.644531 61.558594 282.984375 61.632812 C 283.589844 61.714844 284.152344 62.003906 284.574219 62.453125 C 284.960938 62.929688 285.160156 63.53125 285.128906 64.148438 C 285.148438 64.703125 285 65.25 284.703125 65.71875 C 284.425781 66.140625 284.007812 66.449219 283.527344 66.59375 C 282.285156 66.835938 281.019531 66.921875 279.757812 66.855469 L 276.652344 66.855469 Z M 297.476562 58.039062 L 293.28125 58.039062 L 293.28125 78.910156 L 297.488281 78.910156 Z M 297.355469 53.152344 L 293.445312 53.152344 L 293.445312 56.867188 L 297.355469 56.867188 Z M 297.355469 53.152344 "/>
<path style=" stroke:none;fill-rule:nonzero;fill:rgb(10.588235%,10.980392%,12.54902%);fill-opacity:1;" d="M 0.152344 115.738281 L 6.046875 100.351562 L 8.226562 100.351562 L 14.503906 115.738281 L 12.214844 115.738281 L 10.425781 111.070312 L 4.007812 111.070312 L 2.332031 115.738281 Z M 4.574219 109.421875 L 9.785156 109.421875 L 8.183594 105.160156 C 7.691406 103.859375 7.332031 102.800781 7.09375 101.96875 C 6.894531 102.96875 6.617188 103.953125 6.265625 104.90625 Z M 4.574219 109.421875 "/>
<path style=" stroke:none;fill-rule:nonzero;fill:rgb(10.588235%,10.980392%,12.54902%);fill-opacity:1;" d="M 22.554688 115.738281 L 22.554688 100.351562 L 24.648438 100.351562 L 32.699219 112.371094 L 32.699219 100.351562 L 34.652344 100.351562 L 34.652344 115.738281 L 32.570312 115.738281 L 24.507812 103.640625 L 24.507812 115.738281 Z M 22.554688 115.738281 "/>
<path style=" stroke:none;fill-rule:nonzero;fill:rgb(10.588235%,10.980392%,12.54902%);fill-opacity:1;" d="M 43.882812 108.242188 C 43.746094 106.050781 44.476562 103.894531 45.917969 102.242188 C 47.289062 100.785156 49.21875 99.988281 51.214844 100.054688 C 52.5625 100.039062 53.886719 100.390625 55.050781 101.074219 C 56.175781 101.742188 57.078125 102.730469 57.644531 103.914062 C 58.257812 105.203125 58.5625 106.617188 58.539062 108.042969 C 58.566406 109.496094 58.246094 110.929688 57.601562 112.230469 C 57.019531 113.414062 56.085938 114.390625 54.929688 115.027344 C 53.789062 115.660156 52.507812 115.984375 51.203125 115.976562 C 49.835938 115.988281 48.496094 115.609375 47.335938 114.886719 C 46.210938 114.203125 45.3125 113.207031 44.742188 112.023438 C 44.179688 110.839844 43.882812 109.550781 43.882812 108.242188 Z M 45.972656 108.242188 C 45.882812 109.835938 46.417969 111.40625 47.464844 112.613281 C 48.449219 113.636719 49.804688 114.214844 51.21875 114.214844 C 52.636719 114.214844 53.992188 113.636719 54.972656 112.613281 C 56.03125 111.328125 56.5625 109.6875 56.457031 108.023438 C 56.484375 106.898438 56.269531 105.777344 55.824219 104.746094 C 55.441406 103.84375 54.796875 103.082031 53.972656 102.558594 C 53.152344 102.039062 52.203125 101.769531 51.238281 101.78125 C 49.847656 101.761719 48.511719 102.296875 47.519531 103.269531 C 46.484375 104.308594 45.972656 105.957031 45.972656 108.273438 Z M 45.972656 108.242188 "/>
<path style=" stroke:none;fill-rule:nonzero;fill:rgb(10.588235%,10.980392%,12.54902%);fill-opacity:1;" d="M 67.582031 115.738281 L 67.582031 100.351562 L 69.664062 100.351562 L 77.726562 112.371094 L 77.726562 100.351562 L 79.699219 100.351562 L 79.699219 115.738281 L 77.585938 115.738281 L 69.53125 103.640625 L 69.53125 115.738281 Z M 67.582031 115.738281 "/>
<path style=" stroke:none;fill-rule:nonzero;fill:rgb(10.588235%,10.980392%,12.54902%);fill-opacity:1;" d="M 89.714844 99.402344 L 89.714844 97.050781 L 92.046875 97.050781 L 92.046875 99.402344 Z M 89.867188 115.792969 L 89.867188 100.351562 L 91.894531 100.351562 L 91.894531 115.738281 Z M 89.867188 115.792969 "/>
<path style=" stroke:none;fill-rule:nonzero;fill:rgb(10.588235%,10.980392%,12.54902%);fill-opacity:1;" d="M 101.84375 115.738281 L 101.84375 100.351562 L 104.894531 100.351562 L 108.53125 111.277344 C 108.871094 112.296875 109.109375 113.050781 109.261719 113.550781 C 109.4375 113 109.710938 112.179688 110.082031 111.09375 L 113.753906 100.382812 L 116.488281 100.382812 L 116.488281 115.769531 L 114.570312 115.769531 L 114.570312 102.855469 L 110.113281 115.738281 L 108.28125 115.738281 L 103.847656 102.625 L 103.847656 115.738281 Z M 101.84375 115.738281 "/>
<path style=" stroke:none;fill-rule:nonzero;fill:rgb(10.588235%,10.980392%,12.54902%);fill-opacity:1;" d="M 137.964844 108.242188 C 137.839844 106.050781 138.574219 103.894531 140.015625 102.242188 C 141.386719 100.789062 143.316406 99.992188 145.308594 100.054688 C 146.65625 100.035156 147.984375 100.386719 149.144531 101.074219 C 150.273438 101.742188 151.179688 102.730469 151.75 103.914062 C 152.359375 105.203125 152.664062 106.617188 152.644531 108.042969 C 152.667969 109.496094 152.34375 110.929688 151.695312 112.230469 C 151.117188 113.417969 150.183594 114.394531 149.027344 115.027344 C 147.886719 115.660156 146.601562 115.984375 145.300781 115.976562 C 143.933594 115.988281 142.589844 115.609375 141.429688 114.886719 C 140.3125 114.203125 139.414062 113.207031 138.847656 112.023438 C 138.273438 110.84375 137.972656 109.550781 137.964844 108.242188 Z M 140.058594 108.242188 C 139.972656 109.835938 140.507812 111.402344 141.550781 112.613281 C 142.535156 113.636719 143.890625 114.214844 145.308594 114.214844 C 146.726562 114.214844 148.085938 113.636719 149.070312 112.613281 C 150.128906 111.328125 150.65625 109.6875 150.550781 108.023438 C 150.574219 106.898438 150.359375 105.78125 149.917969 104.746094 C 149.53125 103.84375 148.882812 103.082031 148.054688 102.558594 C 147.238281 102.039062 146.289062 101.769531 145.320312 101.78125 C 143.9375 101.757812 142.601562 102.292969 141.617188 103.269531 C 140.582031 104.308594 140.058594 105.957031 140.058594 108.273438 Z M 140.058594 108.242188 "/>
<path style=" stroke:none;fill-rule:nonzero;fill:rgb(10.588235%,10.980392%,12.54902%);fill-opacity:1;" d="M 161.722656 115.738281 L 161.722656 100.351562 L 168.519531 100.351562 C 169.578125 100.300781 170.636719 100.441406 171.648438 100.765625 C 172.363281 101.046875 172.960938 101.5625 173.347656 102.230469 C 173.773438 102.925781 173.996094 103.730469 173.992188 104.546875 C 174.007812 105.578125 173.617188 106.574219 172.902344 107.3125 C 172.003906 108.144531 170.851562 108.644531 169.632812 108.734375 C 170.074219 108.933594 170.488281 109.191406 170.863281 109.496094 C 171.507812 110.109375 172.070312 110.800781 172.542969 111.550781 L 175.210938 115.738281 L 172.660156 115.738281 L 170.625 112.535156 C 170.035156 111.605469 169.535156 110.90625 169.164062 110.414062 C 168.875 110.019531 168.527344 109.671875 168.128906 109.386719 C 167.84375 109.199219 167.53125 109.058594 167.203125 108.972656 C 166.839844 108.921875 166.476562 108.898438 166.113281 108.90625 L 163.746094 108.90625 L 163.746094 115.738281 Z M 163.746094 107.136719 L 168.105469 107.136719 C 168.84375 107.164062 169.578125 107.066406 170.285156 106.851562 C 170.773438 106.683594 171.191406 106.359375 171.472656 105.925781 C 171.746094 105.515625 171.886719 105.039062 171.886719 104.546875 C 171.910156 103.859375 171.617188 103.199219 171.09375 102.753906 C 170.375 102.222656 169.488281 101.972656 168.597656 102.046875 L 163.738281 102.046875 Z M 163.746094 107.136719 "/>
<path style=" stroke:none;fill-rule:nonzero;fill:rgb(10.588235%,10.980392%,12.54902%);fill-opacity:1;" d="M 187.121094 115.738281 L 187.121094 102.164062 L 182.066406 102.164062 L 182.066406 100.351562 L 194.226562 100.351562 L 194.226562 102.164062 L 189.148438 102.164062 L 189.148438 115.738281 Z M 187.121094 115.738281 "/>
<path style=" stroke:none;fill-rule:nonzero;fill:rgb(10.588235%,10.980392%,12.54902%);fill-opacity:1;" d="M 199.46875 115.738281 L 205.363281 100.351562 L 207.542969 100.351562 L 213.820312 115.738281 L 211.554688 115.738281 L 209.722656 111.070312 L 203.316406 111.070312 L 201.625 115.738281 Z M 203.890625 109.421875 L 209.101562 109.421875 L 207.5 105.160156 C 207.007812 103.859375 206.648438 102.800781 206.410156 101.96875 C 206.210938 102.96875 205.933594 103.953125 205.582031 104.90625 Z M 203.890625 109.421875 "/>
<path style=" stroke:none;fill-rule:nonzero;fill:rgb(10.588235%,10.980392%,12.54902%);fill-opacity:1;" d="M 221.796875 115.738281 L 221.796875 100.351562 L 223.832031 100.351562 L 223.832031 108 L 231.460938 100.351562 L 234.21875 100.351562 L 227.777344 106.582031 L 234.503906 115.738281 L 231.820312 115.738281 L 226.371094 107.945312 L 223.867188 110.40625 L 223.867188 115.738281 Z M 221.796875 115.738281 "/>
<path style=" stroke:none;fill-rule:nonzero;fill:rgb(10.588235%,10.980392%,12.54902%);fill-opacity:1;" d="M 242.53125 115.738281 L 242.53125 100.351562 L 244.558594 100.351562 L 244.558594 113.921875 L 252.121094 113.921875 L 252.121094 115.738281 Z M 242.53125 115.738281 "/>
<path style=" stroke:none;fill-rule:nonzero;fill:rgb(10.588235%,10.980392%,12.54902%);fill-opacity:1;" d="M 261.320312 115.738281 L 261.320312 100.351562 L 263.347656 100.351562 L 263.347656 115.738281 Z M 261.320312 115.738281 "/>
<path style=" stroke:none;fill-rule:nonzero;fill:rgb(10.588235%,10.980392%,12.54902%);fill-opacity:1;" d="M 280.542969 109.707031 L 280.542969 107.890625 L 287.078125 107.890625 L 287.078125 113.605469 C 286.152344 114.367188 285.113281 114.972656 283.996094 115.410156 C 282.953125 115.808594 281.84375 116.015625 280.726562 116.011719 C 279.296875 116.027344 277.886719 115.695312 276.617188 115.039062 C 275.417969 114.417969 274.441406 113.4375 273.828125 112.230469 C 273.195312 110.953125 272.871094 109.546875 272.890625 108.121094 C 272.878906 106.671875 273.199219 105.238281 273.828125 103.9375 C 274.390625 102.703125 275.335938 101.6875 276.519531 101.039062 C 277.761719 100.414062 279.140625 100.105469 280.53125 100.144531 C 281.558594 100.125 282.578125 100.308594 283.539062 100.679688 C 284.355469 100.972656 285.085938 101.472656 285.652344 102.132812 C 286.207031 102.882812 286.597656 103.738281 286.808594 104.644531 L 284.976562 105.160156 C 284.808594 104.496094 284.515625 103.867188 284.117188 103.3125 C 283.734375 102.828125 283.230469 102.449219 282.65625 102.21875 C 281.984375 101.941406 281.265625 101.804688 280.542969 101.816406 C 279.71875 101.796875 278.898438 101.941406 278.132812 102.242188 C 277.511719 102.484375 276.953125 102.855469 276.488281 103.335938 C 276.085938 103.785156 275.761719 104.304688 275.527344 104.863281 C 275.128906 105.847656 274.929688 106.898438 274.941406 107.957031 C 274.898438 109.144531 275.140625 110.324219 275.648438 111.398438 C 276.089844 112.296875 276.8125 113.019531 277.707031 113.453125 C 278.597656 113.902344 279.578125 114.132812 280.574219 114.132812 C 281.457031 114.128906 282.328125 113.953125 283.144531 113.617188 C 283.835938 113.359375 284.480469 112.992188 285.054688 112.523438 L 285.054688 109.660156 Z M 282.589844 96.679688 L 283.875 96.679688 C 283.824219 97.449219 283.480469 98.175781 282.917969 98.699219 C 282.320312 99.191406 281.5625 99.441406 280.792969 99.402344 C 280.003906 99.449219 279.226562 99.199219 278.613281 98.699219 C 278.046875 98.175781 277.707031 97.449219 277.664062 96.679688 L 278.949219 96.679688 C 279.003906 97.101562 279.210938 97.488281 279.527344 97.773438 C 279.867188 98.019531 280.277344 98.140625 280.695312 98.121094 C 281.148438 98.15625 281.601562 98.035156 281.980469 97.78125 C 282.308594 97.5 282.527344 97.109375 282.589844 96.679688 Z M 282.589844 96.679688 "/>
<path style=" stroke:none;fill-rule:nonzero;fill:rgb(10.588235%,10.980392%,12.54902%);fill-opacity:1;" d="M 296.8125 115.738281 L 296.8125 100.351562 L 298.835938 100.351562 L 298.835938 115.738281 Z M 296.8125 115.738281 "/>
</g>
</svg>
