<?xml version="1.0" encoding="utf-8"?>
<!-- Generator: Adobe Illustrator 26.5.0, SVG Export Plug-In . SVG Version: 6.00 Build 0)  -->
<svg version="1.0" id="Layer_1" xmlns="http://www.w3.org/2000/svg" xmlns:xlink="http://www.w3.org/1999/xlink" x="0px" y="0px"
	 viewBox="0 0 107 86" style="enable-background:new 0 0 107 86;" xml:space="preserve">
<style type="text/css">
	.st0{fill:#E4032C;}
</style>
<path class="st0" d="M62.8,48.4c2.9-1.8,4.8-5.5,4.8-9.3c-0.1-7.6-6.2-11.1-12-11.1h-14c-0.7,0-1.3,0.6-1.3,1.3V58h4.9
	c0.7,0,1.4-0.3,1.9-0.8s0.8-1.2,0.8-1.9v-5.1h6.8l5.4,7.8h8.1l-6.4-9L62.8,48.4z M55.7,43.4h-7.9v-8.6h7.9c1.2,0,2.3,0.4,3.1,1.2
	s1.3,1.9,1.2,3.1c0,1.1-0.4,2.3-1.3,3.1C58,42.9,56.9,43.4,55.7,43.4z M69,29.3v5.5h9.7V58h4.9c1.5,0,2.6-1.2,2.6-2.6V34.8h7.5
	c1.2,0,2.2-1,2.2-2.2V28H70.4C69.6,28,69,28.6,69,29.3z M11,29.3v5.5h9.7V58h4.9c1.5,0,2.6-1.2,2.7-2.6V34.8h7.5
	c1.2,0,2.2-1,2.2-2.2V28H12.3C11.6,28,11,28.6,11,29.3z"/>
</svg>
