<svg xmlns="http://www.w3.org/2000/svg" width="184" height="32" fill="none" viewBox="0 0 184 32">
    <path fill="#fff" fill-rule="evenodd" d="M32.067 16.287h-5.452v-6.02h5.452c1.922 0 2.927 1.514 2.927 3.01 0 1.164-.795 3.01-2.927 3.01zm-.064-11.3H22.46c-.825 0-1.494.687-1.494 1.536v20.596h3.682c1.104 0 2-.92 2-2.056v-3.396h4.575l3.712 5.452h6.158l-4.447-6.468.518-.333c2.081-1.34 3.48-4.156 3.48-7.008 0-5.72-4.48-8.324-8.641-8.324zM7.108 27.119h3.682c1.105 0 2-.92 2-2.056V10.334h5.197c.94 0 1.7-.783 1.7-1.749V4.986H1.304C.7 4.986.21 5.49.21 6.11v4.225h6.898V27.12zM48.262 27.119h3.682c1.104 0 2-.92 2-2.056V10.334h5.196c.94 0 1.702-.783 1.702-1.749V4.986H42.457c-.604 0-1.093.503-1.093 1.123v4.225h6.898V27.12zM182.724 32H71.782c-3.84 0-6.953-3.113-6.953-6.953V.105h110.942c3.84 0 6.953 3.113 6.953 6.954v24.94z" clip-rule="evenodd"/>
    <path fill="#CF1D39" fill-rule="evenodd" d="M72.529 5.08h3.896v8.734h9.238V6.493c0-.91.503-1.413 1.413-1.413h3.897v20.58c0 .911-.503 1.414-1.414 1.414h-3.896v-8.421h-9.238v7.007c0 .911-.503 1.414-1.414 1.414h-3.896V6.493c0-.91.503-1.413 1.414-1.413zM101.282 18.81h5.906l-2.952-7.823-2.954 7.824zm-8.735 8.264l8.358-20.895c.283-.754.848-1.1 1.634-1.1h4.555l8.83 21.995h-4.462c-.816 0-1.32-.345-1.602-1.13l-1.005-2.64h-9.239l-1.005 2.64c-.283.785-.786 1.13-1.603 1.13h-4.461zM128.593 22.519c1.791 0 2.608-.88 2.608-2.263s-.817-2.263-2.608-2.263h-5.845v4.526h5.845zm-.692-8.547c1.478 0 2.451-.723 2.451-2.168 0-1.446-.973-2.168-2.451-2.168h-5.153v4.336h5.153zm-10.306 13.102V6.494c0-.911.504-1.414 1.415-1.414h9.677c4.242 0 6.944 2.576 6.944 6.033 0 2.01-.848 3.613-2.137 4.524 1.509.911 2.985 2.86 2.985 5.279 0 3.582-2.481 6.158-6.661 6.158h-12.223zM139.264 27.074V6.494c0-.912.502-1.414 1.414-1.414h15.176v3.33c0 .912-.502 1.414-1.414 1.414h-9.898v3.96h9.427v3.33c0 .91-.504 1.413-1.414 1.413h-8.013v3.802h11.312v3.332c0 .91-.502 1.413-1.414 1.413h-15.176zM168.674 16.254c1.98 0 3.395-1.35 3.395-3.238 0-1.886-1.415-3.238-3.395-3.238h-5.062v6.476h5.062zm-10.375 10.784V6.445c0-.781.634-1.414 1.415-1.414h9.022c5.157 0 8.709 3.081 8.709 7.985 0 3.458-1.855 6.131-4.558 7.231l4.716 6.791h-5.942l-4.151-6.036h-3.898v4.212c0 1.007-.818 1.824-1.76 1.824h-3.553z" clip-rule="evenodd"/>
</svg>
