<svg xmlns="http://www.w3.org/2000/svg" viewBox="0 0 493.48 90.94"><defs><style>.cls-1{fill:#ba1c1f;}.cls-2{fill:#14130f;}.cls-3{fill:#fff;}</style></defs><g id="Layer_2" data-name="Layer 2"><g id="Layer_1-2" data-name="Layer 1"><path class="cls-1" d="M179.24,0H493.48V90.94h-314a26.4,26.4,0,0,1-.24-2.81Zm13.39,13.23q0,32.14,0,64.31h12.7c0-9.74.06-19.48,0-29.21,7.77-.11,15.54,0,23.3,0q0,14.61,0,29.24h12.69q0-32.17,0-64.32c-4.23,0-8.46,0-12.69,0q0,12.59,0,25.18c-7.75,0-15.5,0-23.24,0,0-8.41,0-16.81,0-25.2C201.09,13.22,196.86,13.21,192.63,13.23Zm78.32,0q-9.72,32.14-19.47,64.31c4.18,0,8.35,0,12.52,0,1.48-5,3-10.08,4.55-15.12,6.41,0,12.83-.08,19.24,0,2,4.76,3.08,10.13,4.79,15.11h13.3q-9.48-32.19-19-64.33C281.55,13.23,276.25,13.21,271,13.23Zm44.51,64.31h25.76c5.57-.1,11.52-1.53,15.46-5.7,4.71-4.76,5.62-12.23,3.76-18.44a13.9,13.9,0,0,0-9.4-9.15,12.69,12.69,0,0,0,8.55-9c1.15-5.39.65-11.6-3.15-15.89-3.85-4.62-10.15-6.13-15.93-6.11h-25Q315.45,45.38,315.46,77.54Zm60.81-64.31V77.55h42V67.33c-9.93,0-19.86,0-29.78,0V49.88q11.54,0,23.08,0V39.65H388.44V23.79h28.19c0-3.53,0-7.06,0-10.58Q396.46,13.22,376.27,13.23Zm55.34,0q0,32.14,0,64.31c4.06,0,8.12,0,12.18,0,0-9,0-18.07,0-27.11h10.81c3.81,9.06,7.67,18.09,11.47,27.15H479.8c-4.48-9.89-9-19.75-13.55-29.63a17.27,17.27,0,0,0,10.19-9.18c2.73-6.64,1.45-15-3.8-20-3.49-3.79-8.71-5.44-13.75-5.45C449.8,13.18,440.71,13.23,431.61,13.23Z"/><path class="cls-1" d="M327.64,23.09c4.3,0,8.6-.06,12.91,0a7.44,7.44,0,0,1,6.83,7.18c.54,4-1.93,8.61-6.16,9.16-4.51.41-9.06.1-13.59.19Q327.63,31.37,327.64,23.09Z"/><path class="cls-1" d="M443.78,40.36q0-8.64,0-17.27c5.68.22,11.55-.67,17.08,1,5.29,1.84,6.69,9.35,3,13.35-2.1,2.37-5.49,2.8-8.48,2.91C451.54,40.38,447.66,40.35,443.78,40.36Z"/><path class="cls-1" d="M278.38,23.85c1.43,9.91,5,19.36,7.49,29H271.29C273.65,43.2,277.24,33.77,278.38,23.85Z"/><path class="cls-1" d="M327.64,48.82c4.95.29,10.06-.69,14.89.67,5.54,1.78,7.73,9,4.91,13.84-1.75,3.21-5.56,4.62-9,4.69s-7.18,0-10.77,0Q327.63,58.42,327.64,48.82Z"/><path class="cls-2" d="M0,13.39H53.93q0,7.59,0,15.15c-6.05,0-12.09,0-18.14,0v48.8q-8.64,0-17.27,0,0-24.39,0-48.8-9.26,0-18.51,0Z"/><path class="cls-2" d="M57.1,13.39c10.13,0,20.25,0,30.36,0,6.53.33,13.83,1.12,18.63,6,4.5,4.94,5.08,12.2,4.29,18.53A19.08,19.08,0,0,1,99.65,52.91c4.13,8.17,8.39,16.28,12.51,24.45-6.58,0-13.18,0-19.76,0C88.55,70.11,84.76,62.81,81,55.52q-3.12,0-6.24,0c0,7.29,0,14.57,0,21.85-5.87,0-11.74,0-17.61,0Q57.08,45.37,57.1,13.39ZM74.76,27.14c-.37,4.86-.08,9.73-.41,14.59A100.79,100.79,0,0,0,86,41.85a6.83,6.83,0,0,0,5.69-3c2.79-4.4-.39-11.22-5.66-11.65C82.28,27.06,78.53,27.18,74.76,27.14Z"/><path class="cls-2" d="M112.44,13.39h54.11V28.54c-6.05,0-12.11,0-18.16,0,0,16.25,0,32.5,0,48.75-5.77.13-11.53,0-17.3.07,0-16.29,0-32.57,0-48.84-6.21,0-12.43,0-18.65,0Q112.43,21,112.44,13.39Z"/><path class="cls-3" d="M192.63,13.23c4.23,0,8.46,0,12.69,0,0,8.39,0,16.79,0,25.2,7.74,0,15.49,0,23.24,0q0-12.58,0-25.18c4.23,0,8.46,0,12.69,0q0,32.14,0,64.32H228.58q0-14.62,0-29.24c-7.76,0-15.53-.07-23.3,0,.1,9.73,0,19.47,0,29.21h-12.7Q192.65,45.38,192.63,13.23Z"/><path class="cls-3" d="M271,13.23c5.3,0,10.6,0,15.91,0q9.48,32.16,19,64.33h-13.3c-1.71-5-2.78-10.35-4.79-15.11-6.41-.12-12.83,0-19.24,0-1.51,5-3.07,10.07-4.55,15.12-4.17,0-8.34,0-12.52,0Q261.2,45.38,271,13.23Zm7.43,10.62c-1.14,9.92-4.73,19.35-7.09,29h14.58C283.35,43.21,279.81,33.76,278.38,23.85Z"/><path class="cls-3" d="M315.46,77.54q0-32.18,0-64.32h25c5.78,0,12.08,1.49,15.93,6.11,3.8,4.29,4.3,10.5,3.15,15.89a12.69,12.69,0,0,1-8.55,9,13.9,13.9,0,0,1,9.4,9.15c1.86,6.21.95,13.68-3.76,18.44-3.94,4.17-9.89,5.6-15.46,5.7Zm12.18-54.45q0,8.28,0,16.56c4.53-.09,9.08.22,13.59-.19,4.23-.55,6.7-5.19,6.16-9.16a7.44,7.44,0,0,0-6.83-7.18C336.24,23,331.94,23.12,327.64,23.09Zm0,25.73q0,9.6,0,19.2c3.59,0,7.18,0,10.77,0s7.29-1.48,9-4.69c2.82-4.88.63-12.06-4.91-13.84C337.7,48.13,332.59,49.11,327.64,48.82Z"/><path class="cls-3" d="M376.27,13.23q20.19,0,40.36,0c0,3.52,0,7,0,10.58H388.44V39.65h23.08V49.88q-11.55,0-23.08,0V67.32c9.92,0,19.85,0,29.78,0V77.55h-42Z"/><path class="cls-3" d="M431.61,13.23c9.1,0,18.19-.05,27.28,0,5,0,10.26,1.66,13.75,5.45,5.25,5.06,6.53,13.39,3.8,20a17.27,17.27,0,0,1-10.19,9.18c4.51,9.88,9.07,19.74,13.55,29.63H466.06c-3.8-9.06-7.66-18.09-11.47-27.15H443.78c0,9,0,18.08,0,27.11-4.06,0-8.12,0-12.18,0Q431.63,45.38,431.61,13.23Zm12.17,27.13c3.88,0,7.76,0,11.63,0,3-.11,6.38-.54,8.48-2.91,3.66-4,2.26-11.51-3-13.35-5.53-1.68-11.4-.79-17.08-1Q443.77,31.73,443.78,40.36Z"/></g></g></svg>