<svg width="213" height="76" viewBox="0 0 213 76" fill="none" xmlns="http://www.w3.org/2000/svg">
<g id="logo 1" clip-path="url(#clip0_2_6)">
<path id="Vector" d="M72.5438 9.83023C72.4738 7.73245 71.9454 5.92821 70.7409 4.81846C69.3599 3.6815 67.6662 2.91617 65.845 2.60612C56.1194 0.844087 46.2262 -0.0122248 36.3146 0.05011C26.4029 -0.0128548 16.5096 0.843463 6.78412 2.60612H6.75303C4.92938 2.92233 3.23549 3.6952 1.85719 4.83994C0.652661 5.964 0.124222 7.76824 0.0620529 9.85171C-0.111255 17.7221 0.408527 25.5926 1.61629 33.3856C2.56266 39.594 3.95152 45.7384 5.77386 51.7788C6.79189 54.8718 8.72691 56.9696 12.1618 57.4707C20.1298 58.6333 28.185 59.2151 36.2524 59.2105C44.3198 59.2152 52.375 58.6335 60.343 57.4707C63.7857 56.9696 65.7129 54.8718 66.7309 51.7788C68.5739 45.7421 69.9835 39.6001 70.9507 33.3927C72.169 25.5909 72.7018 17.7111 72.5438 9.83023Z" fill="#F58B21"/>
<path id="Vector_2" d="M36.2913 57.6641C28.2996 57.6692 20.3198 57.0946 12.426 55.9457C9.91592 55.5877 8.30729 54.1057 7.39029 51.2919C5.58684 45.3254 4.21609 39.2549 3.28711 33.1207C2.08484 25.4088 1.56505 17.6197 1.73288 9.83024C1.78728 7.98304 2.24578 6.60122 3.06175 5.8423C4.22326 4.91297 5.63545 4.28965 7.14938 4.03806H7.25041C16.7224 2.33661 26.3535 1.49965 36.0037 1.53933H36.5633C46.2395 1.49419 55.8969 2.33118 65.3943 4.03806H65.4565C66.9783 4.29339 68.3964 4.92438 69.5596 5.86378C70.3368 6.6227 70.8341 8.01168 70.8963 9.86604C71.0613 17.6507 70.5415 25.4348 69.3421 33.1422C68.4127 39.2839 67.0393 45.3617 65.2311 51.3349C64.3219 54.0985 62.7132 55.5734 60.1798 55.9386C52.2911 57.0859 44.3166 57.6605 36.3301 57.6569L36.2913 57.6641Z" fill="white"/>
<path id="Vector_3" d="M45.5467 22.3669H38.4827C38.37 22.3773 38.2652 22.4252 38.1879 22.5017C38.1107 22.5781 38.0663 22.6778 38.0631 22.7822L37.1772 36.6433C37.1707 36.6925 37.1752 36.7423 37.1903 36.7897C37.2053 36.8372 37.2307 36.8814 37.2649 36.9195C37.299 36.9577 37.3412 36.9891 37.3889 37.0117C37.4367 37.0344 37.4889 37.0479 37.5424 37.0514H39.2132C39.3246 37.0426 39.4284 36.9959 39.5045 36.9205C39.5806 36.8451 39.6236 36.7463 39.6251 36.6433L39.936 31.7246H44.9561C45.3219 31.7442 45.6811 31.6293 45.955 31.4052C46.2289 31.181 46.3951 30.8659 46.4171 30.529L46.8368 23.6485C46.8495 23.485 46.8257 23.3209 46.7667 23.1662C46.7077 23.0116 46.6149 22.8698 46.4939 22.7496C46.3729 22.6294 46.2264 22.5334 46.0635 22.4676C45.9005 22.4018 45.7247 22.3675 45.5467 22.3669Z" fill="white"/>
<path id="Vector_4" d="M43.5109 24.8871H40.5967C40.5403 24.8851 40.4852 24.9034 40.4431 24.9382C40.4011 24.9729 40.3753 25.0214 40.3713 25.0733L40.1149 29.097C40.1139 29.1211 40.1181 29.1452 40.1274 29.1677C40.1367 29.1903 40.1508 29.2108 40.169 29.2282C40.1871 29.2456 40.2089 29.2594 40.233 29.2689C40.2571 29.2783 40.283 29.2832 40.3092 29.2832H43.2389C43.3247 29.287 43.4104 29.2752 43.4912 29.2485C43.572 29.2218 43.6463 29.1807 43.7098 29.1275C43.7733 29.0743 43.8248 29.01 43.8614 28.9385C43.8979 28.8669 43.9188 28.7894 43.9228 28.7104L44.1248 25.4527C44.128 25.3776 44.1146 25.3027 44.0856 25.2324C44.0565 25.1622 44.0123 25.098 43.9557 25.0439C43.8991 24.9897 43.8313 24.9467 43.7562 24.9173C43.681 24.8879 43.6003 24.8727 43.5187 24.8728" fill="#F58B21"/>
<path id="Vector_5" d="M35.2111 22.3667H26.4141C26.2954 22.368 26.1813 22.4096 26.0938 22.4836C26.0063 22.5576 25.9516 22.6588 25.9401 22.7677L25.8391 24.4574C25.8358 24.5087 25.8442 24.56 25.8635 24.6082C25.8829 24.6563 25.9128 24.7003 25.9515 24.7373C25.9902 24.7743 26.0368 24.8035 26.0883 24.8231C26.1398 24.8427 26.1952 24.8522 26.2509 24.8512H28.9242C29.2817 24.8941 29.4449 25.0731 29.3983 25.3881L28.6833 36.6432C28.6745 36.692 28.677 36.7421 28.6906 36.79C28.7043 36.8379 28.7288 36.8826 28.7626 36.9212C28.7964 36.9597 28.8386 36.9912 28.8866 37.0137C28.9345 37.0361 28.9871 37.0489 29.0408 37.0513H30.7116C30.8229 37.0424 30.9267 36.9957 31.0029 36.9203C31.079 36.8449 31.1219 36.7461 31.1235 36.6432L31.8539 25.3523C31.8539 25.023 32.0715 24.8583 32.5067 24.8512H35.0634C35.1801 24.8499 35.2922 24.8091 35.3783 24.7364C35.4643 24.6637 35.5182 24.5644 35.5297 24.4574L35.6385 22.7677C35.6418 22.7149 35.6331 22.662 35.6129 22.6124C35.5926 22.5629 35.5614 22.5178 35.5212 22.48C35.4809 22.4423 35.4325 22.4127 35.3791 22.3932C35.3257 22.3737 35.2685 22.3647 35.2111 22.3667Z" fill="white"/>
<path id="Vector_6" d="M53.0149 25.2092L53.2636 25.1089C54.4292 24.6793 55.1364 24.5719 55.8669 24.8583C56.2943 25.023 56.5352 24.6579 56.1544 24.393C55.6925 23.9559 55.1366 23.6124 54.5225 23.3843C53.9083 23.1563 53.2493 23.0487 52.5875 23.0684C53.7065 22.8608 54.0251 22.5386 55.1053 22.2737C55.7157 22.1348 56.3516 22.1198 56.9688 22.2299C57.5861 22.3399 58.17 22.5723 58.6801 22.9109C59.0609 23.1257 59.3795 22.782 59.1075 22.4813C56.9626 20.0399 53.4034 19.4098 50.3571 20.1687L50.5514 20.0041C51.4917 19.2237 52.1057 18.8943 52.8828 18.9301C53.349 18.9301 53.4345 18.5363 52.9838 18.4075C52.3873 18.1448 51.7382 17.999 51.0774 17.9792C50.4166 17.9595 49.7585 18.0663 49.1448 18.2929C50.1162 17.7488 50.3027 17.3335 51.2197 16.7464C51.7399 16.4161 52.3333 16.1965 52.957 16.1037C53.5807 16.0108 54.2189 16.0469 54.8256 16.2094C55.2763 16.2882 55.4473 15.8658 55.082 15.6653C52.1678 14.0544 48.5931 14.5985 45.9975 16.281C46.0441 16.2094 46.083 16.1307 46.1296 16.0662C46.728 15.0352 47.1865 14.5269 47.9481 14.305C48.391 14.1761 48.3133 13.7608 47.8471 13.7751C47.1881 13.7186 46.5236 13.7893 45.896 13.9829C45.2684 14.1764 44.6916 14.4885 44.2024 14.8992C44.9096 14.0759 44.9329 13.632 45.5779 12.7513C45.9454 12.28 46.4202 11.8884 46.9693 11.6039C47.5183 11.3194 48.1282 11.149 48.7563 11.1046C49.1915 11.0401 49.207 10.5891 48.7563 10.5175C45.4302 9.9304 42.2674 11.5843 40.4489 13.9828C40.4489 13.904 40.4489 13.8181 40.4489 13.7393C40.6276 12.5795 40.8841 11.9566 41.5136 11.5127C41.8866 11.2478 41.6612 10.8755 41.226 11.0473C40.585 11.2046 39.9863 11.4823 39.4674 11.8631C38.9485 12.2438 38.5207 12.7193 38.2108 13.2596C38.5761 12.2573 38.4284 11.8277 38.7315 10.8254C38.9191 10.2714 39.2351 9.76161 39.6578 9.33139C40.0805 8.90116 40.5997 8.56076 41.1794 8.33379C41.568 8.12616 41.4203 7.69658 41.0007 7.76102C37.6513 8.26935 35.2811 10.8325 34.4651 13.6678C34.4651 13.589 34.4651 13.5031 34.4029 13.4243C34.1543 12.2788 34.1543 11.6129 34.5894 10.99C34.8381 10.6249 34.4962 10.3457 34.1465 10.6464C33.6022 10.9997 33.1422 11.452 32.7947 11.9753C32.4472 12.4986 32.2196 13.0819 32.126 13.6892C32.126 12.6296 31.8151 12.2573 31.7219 11.2335C31.6751 10.6475 31.7669 10.0592 31.9909 9.5091C32.215 8.95902 32.566 8.46031 33.0197 8.0474C33.315 7.73238 33.0197 7.38155 32.6389 7.57486C29.6858 9.12135 28.3958 12.2788 28.6678 15.1999L28.5279 14.9923C27.8674 13.9971 27.6265 13.367 27.8052 12.6511C27.9062 12.2287 27.4788 12.0711 27.2612 12.4649C26.8803 12.9679 26.6149 13.5372 26.4813 14.138C26.3476 14.7388 26.3486 15.3584 26.4841 15.9588C26.0722 14.978 25.6681 14.7417 25.2019 13.8109C24.948 13.2754 24.8221 12.6958 24.8329 12.1114C24.8436 11.5271 24.9906 10.9518 25.264 10.4244C25.4195 10.0306 25.0076 9.80152 24.7278 10.1022C22.5208 12.4936 22.4664 15.8658 23.7953 18.5292L23.5932 18.386C22.6063 17.67 22.1478 17.1402 22.039 16.4027C21.9846 15.9803 21.5261 15.966 21.4717 16.4027C21.2936 16.9939 21.25 17.6126 21.3436 18.2199C21.4372 18.8273 21.666 19.4104 22.0157 19.9325C21.2386 19.1449 20.8034 19.0447 20.0107 18.3072C19.5775 17.8822 19.248 17.3768 19.0443 16.8248C18.8405 16.2728 18.7673 15.687 18.8295 15.1068C18.8295 14.6916 18.3555 14.5985 18.2078 14.9708C17.0111 17.9278 18.2078 21.1067 20.4304 23.1901L20.1817 23.1185C18.9927 22.7462 18.371 22.4026 18.0058 21.751C17.7959 21.3716 17.3685 21.5004 17.4696 21.9372C17.5234 22.547 17.7117 23.1403 18.0231 23.6808C18.3344 24.2212 18.7622 24.6974 19.2802 25.0803C18.2933 24.5719 17.827 24.6292 16.809 24.1853C16.2439 23.9273 15.7463 23.5594 15.3505 23.107C14.9547 22.6546 14.6702 22.1284 14.5165 21.5649C14.3611 21.1639 13.8871 21.2355 13.8793 21.6293C13.9213 23.1244 14.4245 24.5776 15.33 25.8188C16.2355 27.0601 17.506 28.0382 18.9927 28.6386H18.7285C17.4773 28.6744 16.7624 28.5527 16.1873 28.0515C15.8454 27.7508 15.4879 28.0515 15.7444 28.3952C16.0218 28.956 16.4227 29.4575 16.9217 29.868C17.4207 30.2784 18.0069 30.5888 18.643 30.7794C17.524 30.6219 17.0888 30.8223 15.9853 30.7221C15.3617 30.6586 14.7606 30.4706 14.2238 30.1714C13.687 29.8722 13.2273 29.4689 12.8768 28.9895C12.5893 28.6673 12.1696 28.8821 12.3095 29.2544C13.4286 32.2328 16.5526 33.9583 19.6921 34.2232L19.4434 34.3091C18.2778 34.7458 17.5706 34.8532 16.8401 34.5669C16.4127 34.4022 16.1718 34.7602 16.5526 35.0322C17.0145 35.4673 17.5692 35.8096 18.1817 36.0376C18.7943 36.2655 19.4514 36.3742 20.1118 36.3568C19.0083 36.5644 18.6819 36.8866 17.5939 37.1515C16.9781 37.3004 16.334 37.3205 15.7087 37.2102C15.0834 37.1 14.4929 36.8622 13.9803 36.5143C13.5917 36.2995 13.2654 36.6432 13.5373 36.9439C14.5999 38.066 15.9919 38.8814 17.5458 39.2916C19.0996 39.7019 20.749 39.6897 22.2955 39.2564C22.2345 39.315 22.1696 39.37 22.1012 39.4211C21.1686 40.2015 20.5469 40.5309 19.7698 40.4951C19.3036 40.4951 19.2181 40.8889 19.6688 41.0249C20.2658 41.2864 20.9153 41.431 21.5761 41.4495C22.2368 41.468 22.8946 41.36 23.5078 41.1323C22.5364 41.6764 22.3499 42.0845 21.4329 42.6788C20.9132 43.0042 20.3225 43.221 19.7023 43.3137C19.0821 43.4065 18.4473 43.3731 17.8426 43.2157C17.4074 43.137 17.2287 43.5594 17.5939 43.7599C20.5003 45.3708 24.0828 44.8482 26.6629 43.1441L26.5463 43.3661C25.9479 44.3971 25.4816 44.8983 24.7201 45.1202C24.2771 45.2491 24.347 45.6715 24.8211 45.65C25.48 45.7053 26.1441 45.6339 26.7715 45.4404C27.3989 45.2469 27.9758 44.9355 28.4658 44.526C27.7586 45.3493 27.7353 45.7932 27.0903 46.6739C26.722 47.1439 26.2468 47.5341 25.6978 47.8173C25.1488 48.1005 24.5393 48.2698 23.9119 48.3134C23.4689 48.385 23.4611 48.8361 23.9119 48.9077C27.2379 49.4948 30.4086 47.8409 32.2192 45.4424C32.2192 45.5212 32.2192 45.6071 32.2192 45.6858C32.0405 46.8457 31.7841 47.4686 31.1546 47.9197C30.7816 48.1774 30.9992 48.5497 31.4421 48.3779C32.0827 48.2217 32.6809 47.9443 33.1987 47.5634C33.7165 47.1825 34.1425 46.7065 34.4496 46.1655C34.0921 47.1679 34.232 47.5975 33.9367 48.5998C33.7646 49.1581 33.4628 49.6753 33.0522 50.1154C32.6415 50.5555 32.1319 50.9081 31.5587 51.1487C31.1624 51.3563 31.3256 51.7787 31.7374 51.7214C35.0868 51.2131 37.457 48.6499 38.273 45.8147C38.273 45.8935 38.273 45.9794 38.3274 46.051C38.5838 47.2037 38.5761 47.8695 38.1486 48.4924C37.9 48.8576 38.2341 49.1368 38.5916 48.8361C39.135 48.4835 39.5945 48.0324 39.9419 47.5104C40.2894 46.9884 40.5174 46.4065 40.6121 45.8004C40.6121 46.8529 40.9229 47.2323 41.0084 48.2418C41.0378 48.8246 40.9293 49.4062 40.6905 49.9465C40.4516 50.4867 40.0881 50.9727 39.6252 51.3706C39.3299 51.6928 39.6252 52.0436 40.006 51.8503C42.9668 50.3038 44.2412 47.1464 43.977 44.2253L44.1169 44.4329C44.7775 45.4281 45.0106 46.0581 44.8396 46.7813C44.7386 47.1965 45.1582 47.3469 45.3836 46.9603C45.7629 46.4566 46.0273 45.8872 46.1609 45.2867C46.2945 44.6861 46.2944 44.0669 46.1607 43.4663C46.5726 44.4472 46.9378 44.6835 47.443 45.6142C47.6996 46.1512 47.8282 46.7327 47.8202 47.3193C47.8121 47.906 47.6676 48.4843 47.3963 49.0151C47.2331 49.4017 47.645 49.638 47.9248 49.3373C50.1318 46.9459 50.1784 43.5666 48.8495 40.9103C48.9195 40.9533 48.9894 41.0106 49.0594 41.0607C50.0463 41.7767 50.5048 42.2993 50.6136 43.0296C50.668 43.4592 51.1187 43.4735 51.1887 43.0296C51.3626 42.4373 51.4027 41.8184 51.3065 41.2112C51.2102 40.6041 50.9797 40.0216 50.6291 39.4999C51.4063 40.2874 51.8414 40.3877 52.6341 41.1251C53.0691 41.5492 53.4003 42.0544 53.6054 42.6065C53.8106 43.1586 53.8848 43.7447 53.8231 44.3255C53.8231 44.7408 54.2894 44.8338 54.437 44.4615C55.6415 41.5046 54.437 38.3185 52.2222 36.2422L52.4709 36.3138C53.6599 36.6861 54.2816 37.0298 54.6468 37.6813C54.8489 38.0608 55.2841 37.9319 55.183 37.4952C55.1278 36.8849 54.9381 36.2914 54.6254 35.7509C54.3128 35.2105 53.8837 34.7345 53.3646 34.3521C54.3593 34.8532 54.8333 34.8031 55.8514 35.247C56.4156 35.507 56.912 35.8765 57.3064 36.3301C57.7008 36.7837 57.9838 37.3106 58.1361 37.8746C58.2915 38.2612 58.7656 38.1968 58.7733 37.803C58.7328 36.3067 58.2303 34.852 57.3247 33.6093C56.419 32.3667 55.1478 31.3875 53.6599 30.7865H53.9241C55.183 30.7507 55.8825 30.8796 56.4653 31.3736C56.8072 31.6672 57.1647 31.3736 56.9082 31.03C56.6322 30.4741 56.2353 29.9763 55.742 29.5675C55.2488 29.1586 54.6697 28.8474 54.0407 28.653C55.1675 28.8105 55.5949 28.61 56.6984 28.7102C57.322 28.7738 57.9231 28.9617 58.4599 29.2609C58.9967 29.5601 59.4564 29.9635 59.8069 30.4429C60.0944 30.7651 60.5141 30.5503 60.3742 30.178C59.2785 27.1924 56.1544 25.4669 53.0149 25.2092ZM35.522 24.4932C35.5105 24.6002 35.4566 24.6995 35.3706 24.7722C35.2845 24.8449 35.1724 24.8857 35.0557 24.887H32.499C32.0638 24.887 31.854 25.0588 31.8462 25.3881L31.1235 36.679C31.122 36.7819 31.079 36.8807 31.0029 36.9561C30.9268 37.0315 30.823 37.0782 30.7116 37.0871H29.0408C28.9871 37.0847 28.9346 37.0719 28.8866 37.0495C28.8387 37.027 28.7964 36.9955 28.7626 36.957C28.7289 36.9184 28.7043 36.8737 28.6907 36.8258C28.677 36.7779 28.6745 36.7278 28.6834 36.679L29.3983 25.4239C29.4449 25.1089 29.2817 24.9299 28.9243 24.887H26.251C26.1952 24.888 26.1399 24.8785 26.0883 24.8589C26.0368 24.8393 25.9902 24.8101 25.9515 24.7731C25.9129 24.7361 25.8829 24.6921 25.8636 24.644C25.8442 24.5958 25.8359 24.5445 25.8391 24.4932L25.9401 22.8035C25.9421 22.6882 25.9927 22.5782 26.0812 22.4967C26.1697 22.4152 26.2891 22.3686 26.4142 22.3668H35.2111C35.2679 22.3657 35.3243 22.3754 35.3768 22.3954C35.4292 22.4154 35.4767 22.4451 35.5161 22.4827C35.5555 22.5204 35.586 22.5651 35.6057 22.6142C35.6255 22.6632 35.634 22.7155 35.6308 22.7677L35.522 24.4932ZM46.4016 30.536C46.3947 30.7053 46.3512 30.8716 46.2737 31.0252C46.1961 31.1788 46.0861 31.3167 45.9501 31.4307C45.8141 31.5447 45.6547 31.6325 45.4814 31.6891C45.3081 31.7457 45.1242 31.7699 44.9406 31.7603H39.936L39.6252 36.6432C39.6237 36.7461 39.5807 36.8449 39.5046 36.9203C39.4285 36.9957 39.3246 37.0424 39.2133 37.0513H37.5425C37.4889 37.0477 37.4367 37.0342 37.389 37.0116C37.3413 36.9889 37.2991 36.9575 37.2649 36.9193C37.2308 36.8812 37.2054 36.837 37.1903 36.7895C37.1752 36.7421 37.1708 36.6923 37.1772 36.6432L38.0709 22.782C38.0741 22.6776 38.1185 22.5779 38.1958 22.5015C38.273 22.4251 38.3778 22.3772 38.4906 22.3668H45.5546C45.7297 22.3675 45.9029 22.401 46.0636 22.465C46.2243 22.5291 46.3693 22.6225 46.4899 22.7396C46.6104 22.8566 46.7039 22.9949 46.7649 23.1462C46.8259 23.2975 46.853 23.4585 46.8446 23.6197L46.4016 30.536Z" fill="#F58B21"/>
<path id="Vector_7" d="M94.1477 30.5648V14.5343H100.442V11.2694H83.54V14.5343H89.8502V30.5648H94.1477ZM103.186 21.5579C103.136 23.1994 103.277 24.8411 103.605 26.4551C103.818 27.2485 104.23 27.9844 104.81 28.603C105.483 29.3345 106.339 29.9045 107.304 30.2641C108.782 30.7576 110.351 30.9743 111.92 30.9013C113.31 30.9486 114.698 30.7518 116.008 30.3214C116.966 29.9861 117.823 29.4463 118.51 28.7462C119.158 28.0543 119.602 27.2212 119.8 26.3263C120.084 24.7029 120.199 23.0582 120.142 21.4147V11.2694H115.853V21.9374C115.884 23.0334 115.819 24.13 115.658 25.2165C115.534 25.8813 115.136 26.4763 114.547 26.8776C113.742 27.3969 112.769 27.6493 111.788 27.5935C110.784 27.643 109.789 27.3919 108.952 26.8776C108.271 26.4207 107.804 25.7424 107.646 24.9802C107.498 23.9097 107.44 22.83 107.475 21.7512V11.2694H103.186V21.5579ZM110.343 6.99512H106.846V10.1669H110.343V6.99512ZM116.56 6.99512H113.047V10.1669H116.56V6.99512ZM128.994 30.5648V22.5101H129.864C130.592 22.481 131.32 22.5534 132.024 22.7249C132.519 22.8945 132.964 23.1692 133.322 23.5268C134.133 24.4402 134.886 25.3965 135.576 26.3907L138.684 30.5934H143.821L141.225 26.8274C140.51 25.7186 139.691 24.6693 138.778 23.6915C138.093 23.049 137.307 22.5058 136.446 22.0806C138.033 21.9432 139.519 21.303 140.65 20.2692C141.6 19.2861 142.103 18.0046 142.057 16.6893C142.078 15.6126 141.753 14.5542 141.124 13.6465C140.552 12.7899 139.681 12.1384 138.653 11.7993C137.041 11.3836 135.367 11.2071 133.695 11.2766H124.688V30.5648H128.994ZM128.994 14.5343H132.343C134.084 14.5343 135.133 14.5343 135.451 14.5987C136.071 14.6674 136.644 14.9363 137.068 15.3576C137.469 15.7968 137.674 16.3596 137.643 16.9328C137.664 17.4393 137.515 17.9395 137.216 18.3647C136.923 18.7539 136.5 19.0433 136.011 19.1881C134.73 19.4058 133.426 19.4851 132.125 19.4243H128.994V14.5343ZM150.496 30.5648V24.7296L153.978 21.5078L159.822 30.5648H165.386L156.97 18.7871L164.982 11.2694H159.208L150.528 19.8611V11.2694H146.23V30.5648H150.496ZM171.735 11.2694H167.445V30.5648H171.735V11.2694ZM171.634 6.66577H167.632V10.1669H171.634V6.66577ZM185.723 30.5648V22.4672L193.541 11.2694H188.598L183.687 18.9017L178.682 11.2694H173.647L181.418 22.4457V30.5648H185.723ZM211.858 30.5648V27.3071H199.968V22.0591H210.645V18.8086H199.968V14.5128H211.446V11.2694H195.678V30.5648H211.858Z" fill="#1B1C20"/>
<path id="Vector_8" d="M86.6951 51.7001V46.5523H88.6456C89.686 46.5741 90.7264 46.5094 91.7541 46.359C92.3141 46.2394 92.8426 46.0179 93.3083 45.7074C93.8423 45.3615 94.2748 44.8991 94.5673 44.3614C94.9242 43.7072 95.0979 42.9811 95.0724 42.2493C95.1167 41.2975 94.813 40.3596 94.2098 39.5859C93.6829 38.9307 92.9289 38.4609 92.0727 38.2542C90.8977 38.0687 89.7046 37.9991 88.5135 38.0466H83.7109V51.7001H86.6951ZM88.1405 40.352C88.8598 40.3332 89.5796 40.3667 90.2931 40.4522C90.7576 40.5196 91.1828 40.7319 91.4976 41.0536C91.8247 41.3915 91.9973 41.8327 91.9795 42.2851C91.9892 42.6626 91.8695 43.0334 91.6375 43.3447C91.4084 43.6514 91.083 43.8862 90.705 44.0177C89.9291 44.2018 89.1269 44.2743 88.327 44.2325H86.6951V40.352H88.1405ZM108.789 51.7001V49.4018H100.512V45.6859H107.957V43.4163H100.512V40.352H108.509V38.0466H97.5203V51.7001H108.789ZM117.655 51.7001V40.352H122.046V38.0466H110.265V40.352H114.671V51.7001H117.655ZM126.981 51.7001V45.9723H127.579C128.087 45.9557 128.595 46.0063 129.087 46.1227C129.432 46.245 129.741 46.4413 129.988 46.6955C130.55 47.3342 131.069 48.0037 131.542 48.7002L133.703 51.6714H137.285L135.475 49.008C134.977 48.2269 134.408 47.4867 133.773 46.7957C133.304 46.3408 132.764 45.9523 132.172 45.643C133.28 45.5583 134.319 45.1114 135.102 44.3829C135.768 43.6844 136.118 42.7774 136.081 41.8484C136.096 41.0899 135.872 40.3438 135.436 39.7004C135.043 39.1075 134.447 38.6517 133.742 38.4045C132.621 38.1094 131.456 37.9836 130.291 38.0322H123.989V51.7001H126.981ZM126.981 40.352H129.312C130.524 40.352 131.247 40.352 131.496 40.4021C131.928 40.4554 132.326 40.6452 132.623 40.9391C132.899 41.2513 133.04 41.6465 133.019 42.0488C133.037 42.4132 132.931 42.7737 132.716 43.0798C132.516 43.3542 132.22 43.5566 131.877 43.6526C130.991 43.8102 130.088 43.8679 129.188 43.8244H126.981V40.352ZM140.27 50.0748C141.702 51.2803 143.571 51.9487 145.511 51.9487C147.451 51.9487 149.321 51.2803 150.753 50.0748C152.12 48.6548 152.818 46.7929 152.696 44.8984C152.762 43.9544 152.624 43.0078 152.29 42.1131C151.957 41.2185 151.434 40.3936 150.753 39.6861C150.069 39.0559 149.25 38.5642 148.348 38.2424C147.446 37.9206 146.481 37.7759 145.515 37.8175C144.423 37.7953 143.337 37.9754 142.321 38.3473C141.597 38.637 140.945 39.0583 140.402 39.5859C139.826 40.128 139.36 40.7609 139.026 41.4546C138.534 42.5671 138.302 43.7622 138.342 44.9628C138.285 45.8913 138.429 46.821 138.763 47.6983C139.098 48.5756 139.618 49.3833 140.293 50.0748M142.562 41.34C142.948 40.9735 143.41 40.6821 143.921 40.4831C144.431 40.2841 144.98 40.1815 145.534 40.1815C146.089 40.1815 146.638 40.2841 147.148 40.4831C147.659 40.6821 148.121 40.9735 148.507 41.34C149.33 42.3449 149.723 43.5937 149.61 44.8483C149.72 46.1303 149.313 47.4047 148.468 48.4281C148.094 48.8044 147.639 49.1049 147.132 49.3105C146.625 49.5161 146.077 49.6223 145.523 49.6223C144.969 49.6223 144.421 49.5161 143.914 49.3105C143.407 49.1049 142.952 48.8044 142.578 48.4281C141.716 47.4121 141.305 46.1327 141.427 44.8483C141.323 43.5833 141.726 42.327 142.562 41.3185M165.572 51.6786V49.4018H158.135V38.154H155.144V51.7001L165.572 51.6786ZM178.224 51.6786V49.4018H170.779V38.154H167.772V51.7001L178.224 51.6786ZM191.629 51.6786V49.4018H183.337V45.6859H190.782V43.4163H183.337V40.352H191.342V38.0466H180.345V51.7001L191.629 51.6786ZM197.178 51.6786V45.9508H197.784C198.289 45.9341 198.794 45.9848 199.284 46.1012C199.631 46.2242 199.943 46.4203 200.193 46.674C200.756 47.3115 201.275 47.981 201.747 48.6787L203.915 51.65H207.482L205.672 48.9866C205.175 48.2031 204.603 47.4626 203.962 46.7742C203.495 46.3176 202.955 45.929 202.361 45.6215C203.47 45.5369 204.509 45.0899 205.291 44.3614C205.965 43.6671 206.319 42.7579 206.278 41.8269C206.29 41.0678 206.064 40.3217 205.625 39.679C205.227 39.0921 204.628 38.6438 203.923 38.4045C202.806 38.1173 201.647 37.9965 200.488 38.0466H194.194V51.7001L197.178 51.6786ZM197.178 40.3305H199.509C200.721 40.3305 201.452 40.3305 201.693 40.3806C202.127 40.4341 202.527 40.6237 202.827 40.9176C203.104 41.2298 203.245 41.6251 203.224 42.0273C203.238 42.3913 203.132 42.7507 202.921 43.0583C202.721 43.3327 202.424 43.5351 202.081 43.6311C201.196 43.788 200.293 43.8457 199.393 43.8029H197.178V40.3305ZM212.028 38.0251H209.037V51.7001H212.036L212.028 38.0251ZM211.943 34.8247H209.153V37.259H211.943V34.8247Z" fill="#1B1C20"/>
<path id="Vector_9" d="M-0.0078125 75.8281L4.19639 65.7473H5.75063L10.2268 75.8281H8.59487L7.3204 72.771H2.74318L1.54642 75.8281H-0.0078125ZM3.14728 71.6898H6.8619L5.71954 68.8976C5.36984 68.0456 5.11339 67.3511 4.94242 66.8069C4.80084 67.4622 4.60336 68.1062 4.35181 68.7329L3.14728 71.6898Z" fill="#F58B21"/>
<path id="Vector_10" d="M15.9697 75.8281V65.7473H17.4618L23.2047 73.623V65.7473H24.5957V75.8281H23.1114L17.3608 67.9024V75.8281H15.9697Z" fill="#F58B21"/>
<path id="Vector_11" d="M31.1779 70.9167C31.081 69.4812 31.6033 68.0685 32.6311 66.986C33.1145 66.5143 33.7012 66.1426 34.3524 65.8958C35.0035 65.6489 35.7042 65.5324 36.4079 65.5541C37.3686 65.5421 38.3145 65.7723 39.1434 66.2199C39.9468 66.6575 40.5906 67.3055 40.9929 68.0814C41.4309 68.9256 41.6491 69.8523 41.6302 70.7878C41.6504 71.7381 41.4211 72.6788 40.9618 73.5299C40.5464 74.3065 39.8817 74.9464 39.0579 75.3628C38.2443 75.7762 37.3293 75.9906 36.4002 75.9857C35.4256 75.9923 34.469 75.744 33.6414 75.2697C32.8404 74.823 32.1978 74.1713 31.7919 73.3939C31.39 72.6204 31.1803 71.7742 31.1779 70.9167ZM32.67 70.9167C32.6059 71.9627 32.9879 72.9904 33.7346 73.7805C34.0812 74.1125 34.497 74.3766 34.957 74.557C35.417 74.7374 35.9119 74.8304 36.4118 74.8304C36.9118 74.8304 37.4066 74.7374 37.8666 74.557C38.3266 74.3766 38.7424 74.1125 39.089 73.7805C39.8433 72.9384 40.2212 71.8631 40.1459 70.7735C40.1656 70.0359 40.0118 69.3032 39.6951 68.6256C39.4219 68.0363 38.9613 67.537 38.374 67.1936C37.7909 66.854 37.1133 66.6774 36.4235 66.6853C35.9338 66.6779 35.4474 66.7602 34.9925 66.9273C34.5376 67.0945 34.1233 67.3432 33.7735 67.659C33.0352 68.3392 32.67 69.4203 32.67 70.9381V70.9167Z" fill="#F58B21"/>
<path id="Vector_12" d="M48.0803 75.8281V65.7473H49.5646L55.3153 73.623V65.7473H56.7219V75.8281H55.2143L49.4714 67.9024V75.8281H48.0803Z" fill="#F58B21"/>
<path id="Vector_13" d="M63.8635 65.1244V63.5851H65.5266V65.1244H63.8635ZM63.9723 75.8639V65.7473H65.4178V75.8281L63.9723 75.8639Z" fill="#F58B21"/>
<path id="Vector_14" d="M72.5127 75.8281V65.7473H74.6886L77.2842 72.907C77.5251 73.5728 77.6961 74.0669 77.8049 74.3962C77.9292 74.0334 78.1235 73.4965 78.3877 72.7853L81.0066 65.7688H82.9572V75.8496H81.5894V67.3869L78.411 75.8281H77.1055L73.9426 67.2365V75.8281H72.5127Z" fill="#F58B21"/>
<path id="Vector_15" d="M98.2742 70.9166C98.1837 69.4807 98.7082 68.0693 99.7352 66.9859C100.219 66.5153 100.806 66.1444 101.457 65.8976C102.108 65.6508 102.808 65.5337 103.512 65.554C104.473 65.5413 105.419 65.7716 106.247 66.2199C107.051 66.6591 107.697 67.3064 108.105 68.0814C108.539 68.9266 108.757 69.8526 108.742 70.7877C108.759 71.7386 108.528 72.6793 108.066 73.5299C107.653 74.3078 106.987 74.9482 106.162 75.3628C105.348 75.7761 104.433 75.9906 103.504 75.9857C102.53 75.9914 101.573 75.7432 100.745 75.2697C99.9468 74.8225 99.3068 74.1707 98.9037 73.3939C98.4931 72.6226 98.2779 71.7756 98.2742 70.9166ZM99.7663 70.9166C99.7055 71.9622 100.087 72.9888 100.831 73.7805C101.178 74.1127 101.595 74.3769 102.055 74.5574C102.516 74.7379 103.011 74.8309 103.512 74.8309C104.013 74.8309 104.508 74.7379 104.969 74.5574C105.429 74.3769 105.846 74.1127 106.193 73.7805C106.947 72.9383 107.325 71.8631 107.25 70.7734C107.266 70.0362 107.112 69.3042 106.799 68.6255C106.523 68.0357 106.06 67.5366 105.47 67.1936C104.887 66.8539 104.21 66.6773 103.52 66.6852C103.031 66.6776 102.546 66.7598 102.092 66.927C101.639 67.0942 101.226 67.343 100.878 67.659C100.139 68.3391 99.7663 69.4202 99.7663 70.9381V70.9166Z" fill="#F58B21"/>
<path id="Vector_16" d="M115.215 75.8281V65.7473H120.065C120.82 65.7153 121.575 65.8074 122.295 66.0194C122.805 66.2038 123.232 66.5419 123.507 66.9788C123.811 67.4353 123.97 67.9611 123.966 68.4966C123.972 68.8308 123.907 69.163 123.774 69.4738C123.64 69.7847 123.441 70.0682 123.189 70.308C122.549 70.8536 121.727 71.1819 120.857 71.2388C121.172 71.3704 121.467 71.5388 121.735 71.74C122.194 72.1403 122.596 72.5925 122.932 73.086L124.836 75.8281H123.018L121.564 73.7303C121.145 73.1218 120.787 72.6636 120.523 72.3414C120.318 72.0815 120.069 71.8542 119.785 71.6684C119.583 71.5441 119.359 71.4521 119.124 71.3963C118.867 71.3625 118.607 71.3482 118.347 71.3533H116.661V75.8281H115.215ZM116.661 70.1935H119.769C120.295 70.2099 120.82 70.147 121.323 70.0073C121.671 69.8968 121.969 69.6827 122.171 69.3987C122.363 69.1315 122.466 68.8176 122.466 68.4966C122.473 68.2742 122.426 68.0532 122.328 67.8499C122.229 67.6466 122.083 67.4664 121.899 67.3224C121.386 66.9742 120.754 66.8089 120.119 66.857H116.653L116.661 70.1935Z" fill="#F58B21"/>
<path id="Vector_17" d="M133.33 75.8281V66.9358H129.724V65.7473H138.397V66.9358H134.775V75.8281H133.33Z" fill="#F58B21"/>
<path id="Vector_18" d="M142.135 75.8281L146.339 65.7473H147.893L152.369 75.8281H150.753L149.447 72.771H144.878L143.673 75.8281H142.135ZM145.29 71.6898H149.004L147.862 68.8976C147.512 68.0456 147.256 67.3511 147.085 66.8069C146.943 67.4622 146.746 68.1062 146.494 68.7329L145.29 71.6898Z" fill="#F58B21"/>
<path id="Vector_19" d="M158.058 75.8281V65.7473H159.511V70.7591L164.951 65.7473H166.917L162.324 69.8283L167.119 75.8281H165.207L161.322 70.7233L159.534 72.3342V75.8281H158.058Z" fill="#F58B21"/>
<path id="Vector_20" d="M172.846 75.8281V65.7473H174.292V74.6396H179.685V75.8281H172.846Z" fill="#F58B21"/>
<path id="Vector_21" d="M186.244 75.8281V65.7473H187.689V75.8281H186.244Z" fill="#F58B21"/>
<path id="Vector_22" d="M199.952 71.876V70.6875H204.615V74.432C203.953 74.929 203.211 75.3276 202.416 75.6134C201.672 75.8755 200.881 76.009 200.084 76.0071C199.066 76.0191 198.06 75.8002 197.155 75.3699C196.298 74.9647 195.602 74.3208 195.165 73.5299C194.712 72.6946 194.483 71.7715 194.497 70.8379C194.487 69.8886 194.716 68.9501 195.165 68.0957C195.566 67.289 196.239 66.6234 197.085 66.1984C197.971 65.7885 198.953 65.5868 199.945 65.6113C200.677 65.6002 201.406 65.7193 202.089 65.9621C202.672 66.1547 203.192 66.4827 203.597 66.9144C203.991 67.4053 204.272 67.9659 204.421 68.5611L203.115 68.8976C202.995 68.4623 202.786 68.0519 202.501 67.6876C202.228 67.3691 201.869 67.1222 201.46 66.9716C200.982 66.7892 200.469 66.699 199.952 66.7067C199.365 66.6942 198.782 66.7891 198.235 66.9859C197.793 67.1448 197.393 67.3889 197.061 67.7019C196.774 67.9981 196.542 68.337 196.378 68.7043C196.093 69.3474 195.951 70.0361 195.958 70.7305C195.927 71.5087 196.1 72.2825 196.463 72.9858C196.776 73.5726 197.293 74.0464 197.932 74.3318C198.566 74.6254 199.266 74.7775 199.976 74.7757C200.605 74.7733 201.227 74.659 201.81 74.4392C202.302 74.2708 202.762 74.0289 203.17 73.7232V71.8474L199.952 71.876ZM201.413 63.3417H202.33C202.294 63.8473 202.049 64.321 201.646 64.6662C201.221 64.987 200.68 65.1504 200.131 65.1244C199.569 65.1574 199.014 64.9937 198.577 64.6662C198.174 64.322 197.931 63.8472 197.901 63.3417H198.818C198.856 63.6184 199.003 63.8728 199.23 64.0576C199.47 64.2191 199.764 64.3 200.061 64.2868C200.385 64.3082 200.707 64.2301 200.978 64.0648C201.214 63.8803 201.368 63.6234 201.413 63.3417Z" fill="#F58B21"/>
<path id="Vector_23" d="M211.555 75.8281V65.7473H213V75.8281H211.555Z" fill="#F58B21"/>
</g>
<defs>
<clipPath id="clip0_2_6">
<rect width="213" height="76" fill="white"/>
</clipPath>
</defs>
</svg>
